<svg width="24" height="24" viewBox="0 0 24 24" fill="none" xmlns="http://www.w3.org/2000/svg">
<path d="M10.7016 8.87816C10.6219 8.81722 10.5328 8.77034 10.4344 8.74222L9.30468 8.40941L8.63906 7.43909C8.37187 7.05003 7.8375 6.94691 7.44375 7.21878C7.35468 7.27972 7.27968 7.35472 7.22343 7.43909L6.5625 8.40941L5.4375 8.74222C4.98281 8.87816 4.725 9.35628 4.85625 9.80628C4.88437 9.90941 4.93593 10.0032 5.00156 10.0875L5.71875 11.0203L5.68593 12.1969C5.67187 12.6703 6.04687 13.0641 6.52031 13.0782C6.62812 13.0828 6.73125 13.0641 6.82968 13.0266L7.93593 12.6328L9.04218 13.0266C9.13593 13.0594 9.23437 13.0782 9.33281 13.0782C9.45937 13.0782 9.58124 13.05 9.69843 12.9938C9.90468 12.8953 10.0641 12.7219 10.1391 12.5063C10.1766 12.4078 10.1906 12.3 10.1906 12.1922L10.1578 11.0157L10.875 10.0828C11.1609 9.70784 11.0812 9.16409 10.7016 8.87816ZM9.11249 11.9157C9.08906 11.9063 9.06562 11.9016 9.04687 11.8922C8.4 11.6578 8.12812 11.5594 7.99687 11.536C7.97812 11.5313 7.95937 11.5266 7.93125 11.5266C7.9125 11.5266 7.89843 11.5266 7.88906 11.5313C7.75781 11.5547 7.49062 11.6532 6.82968 11.8922C6.80625 11.9016 6.78281 11.911 6.76406 11.9157L6.79218 10.8563C6.79687 10.7344 6.75468 10.6125 6.67968 10.5141L6.03281 9.67503L7.04999 9.37503C7.16718 9.34222 7.27031 9.26722 7.34062 9.16409L7.94062 8.29222L8.54062 9.16409C8.61093 9.26722 8.71406 9.34222 8.83124 9.37503L9.84843 9.67503L9.20156 10.5141C9.12656 10.6125 9.08906 10.7297 9.08906 10.8563L9.11249 11.9157Z" fill="white"/>
<path d="M22.1484 2.93912C21.7078 2.51255 21.0234 2.45162 20.5172 2.79849L20.1 3.08912C19.9594 3.05162 19.8188 3.02818 19.6734 3.02818H3.02812C2.15625 3.02818 1.45312 3.73599 1.45312 4.60318V16.3969C1.45312 17.2641 2.16094 17.9719 3.02812 17.9719H9.77813V18.0985C8.47031 18.3704 7.69687 18.9563 7.69687 19.6922C7.69687 20.8922 9.59062 21.4407 11.3531 21.4407C13.1156 21.4407 15.0094 20.8922 15.0094 19.6922C15.0094 18.9563 14.2359 18.3657 12.9281 18.0985V17.9719H19.6781C20.5453 17.9719 21.2531 17.2641 21.2531 16.3969V5.68599L22.1766 4.76724C22.4156 4.5188 22.5469 4.19537 22.5422 3.84849C22.5375 3.50162 22.3969 3.17818 22.1484 2.93912ZM20.1797 16.3501V16.3969C20.1797 16.6735 19.95 16.9032 19.6734 16.9032C14.9578 16.9032 7.65469 16.9032 3.02344 16.9032C2.74219 16.9032 2.51719 16.6735 2.51719 16.3969V16.3501H20.1797ZM9.9375 19.1579C10.0922 19.4813 10.3547 19.7391 10.6875 19.8938C11.0672 20.0719 11.4938 20.0907 11.8875 19.9454C12.2719 19.8047 12.5859 19.5235 12.7641 19.1579C13.5516 19.3313 13.8937 19.5985 13.9359 19.6922C13.8656 19.8469 13.0875 20.3719 11.3531 20.3719C9.61875 20.3719 8.83594 19.8469 8.77031 19.6922C8.80781 19.5985 9.15 19.3313 9.9375 19.1579ZM11.8547 18.4735C11.8547 18.6094 11.7984 18.736 11.7047 18.8297C11.6062 18.9235 11.4797 18.9751 11.3438 18.9751C11.0719 18.9704 10.8469 18.7454 10.8422 18.4782V17.9719H11.8547V18.4735ZM14.3531 11.386C14.0578 11.6344 13.1203 11.7469 11.9344 11.6766C12.0375 10.7907 12.2156 9.57662 12.8812 9.17349C13.1719 8.99537 13.5328 8.98599 13.9875 9.13599C14.0578 9.5813 14.3766 9.95631 14.8031 10.1016C14.8969 10.5751 14.7234 11.0719 14.3531 11.386ZM15.3 9.06099C15.2672 9.08912 15.225 9.09849 15.1828 9.0938C15.1406 9.08912 15.1031 9.07037 15.075 9.03755C15.0188 8.97193 15.0281 8.87349 15.0938 8.81724L15.2156 8.71412L15.4219 8.95787L15.3 9.06099ZM15.1453 6.56255C14.7469 6.8438 14.5547 7.32662 14.6437 7.79537C14.5266 7.88912 14.4141 7.99693 14.3063 8.10474C13.8141 7.91724 13.2703 7.90787 12.7641 8.07193C12.2156 8.25474 11.7609 8.63443 11.4797 9.14068L11.4703 9.15474C11.0484 10.1344 10.8328 11.1657 10.8328 12.2297C9.91875 13.5329 8.34844 14.0672 6.81562 13.5985C5.25937 13.1251 4.25156 11.7657 4.24219 10.1485C4.24219 9.17818 4.61719 8.2688 5.30625 7.58443C5.99062 6.90005 6.9 6.52037 7.87031 6.52037C8.8875 6.52037 9.86719 6.95162 10.5562 7.7063C10.6547 7.80943 10.7859 7.87037 10.9312 7.87505C11.0719 7.87974 11.2078 7.82818 11.3109 7.72974C11.5219 7.53287 11.5359 7.20474 11.3438 6.98912C9.6 5.07662 6.62344 4.93599 4.71094 6.67974C3.74531 7.56568 3.1875 8.83131 3.1875 10.1532C3.20625 12.2954 4.54219 14.0626 6.59531 14.6485C8.61094 15.2251 10.6406 14.4751 11.7984 12.7407C12.9281 12.8204 14.3625 12.7829 15.0469 12.2063C15.6984 11.6532 16.0078 10.8001 15.8672 9.96099C15.9937 9.87662 16.1203 9.78287 16.2328 9.67974C16.6781 9.84849 17.1891 9.74537 17.5312 9.39849L20.1844 6.75005V15.2813H2.52187V4.60318C2.52187 4.32193 2.75156 4.09693 3.02812 4.09693H18.6656L15.1453 6.56255ZM16.6641 8.69068C16.6219 8.69068 16.5797 8.67193 16.5516 8.6438C16.5469 8.63912 16.5469 8.63912 16.5422 8.63443L15.7313 7.6688C15.675 7.59849 15.6844 7.50005 15.7547 7.4438C15.7594 7.43912 15.7594 7.43912 15.7641 7.43912C15.9562 7.30318 17.4703 6.2438 18.8438 5.28287C20.0016 4.47193 21.0562 3.7313 21.1312 3.67974C21.1687 3.6563 21.2109 3.64224 21.2578 3.64224C21.2719 3.64224 21.2859 3.64224 21.3 3.64693C21.3562 3.6563 21.4078 3.6938 21.4406 3.74068C21.4969 3.82505 21.4875 3.94224 21.4172 4.01724L16.7812 8.64849C16.7437 8.67662 16.7063 8.69068 16.6641 8.69068Z" fill="white"/>
</svg>
