<svg width="24" height="24" viewBox="0 0 24 24" fill="none" xmlns="http://www.w3.org/2000/svg">
<path d="M20.681 3.28776C21.0112 2.37326 20.7078 1.33831 19.9138 0.745006C19.4141 0.379207 18.8074 0.236456 18.2052 0.343519C17.5985 0.450582 17.081 0.789616 16.742 1.29817L15.4126 3.27884H3.47063C2.32863 3.27884 1.40075 4.20672 1.40075 5.34872V16.8714C1.40075 18.0134 2.32863 18.9413 3.47063 18.9413H10.1309L9.72937 20.6275H8.80149C7.9093 20.6275 7.18662 21.3502 7.18662 22.2424V22.2558H6.04907C5.65651 22.2558 5.33532 22.577 5.33532 22.9695C5.33532 23.3621 5.65651 23.6833 6.04907 23.6833H17.9599C18.3524 23.6833 18.6736 23.3621 18.6736 22.9695C18.6736 22.577 18.3524 22.2558 17.9599 22.2558H16.8178V22.2424C16.8178 21.3502 16.0952 20.6275 15.203 20.6275H14.2751L13.8736 18.9413H20.5338C21.6758 18.9413 22.6037 18.0134 22.6037 16.8714V5.35318C22.5993 4.26471 21.7517 3.36805 20.681 3.28776ZM8.60967 22.2558V22.2424C8.60967 22.1398 8.69889 22.055 8.80149 22.055H15.1985C15.3011 22.055 15.3859 22.1398 15.3859 22.2424V22.2558H8.60967ZM11.197 20.6275L11.5985 18.9413H12.4015L12.803 20.6275H11.197ZM2.82826 15.0513H3.83643C4.229 15.0513 4.55019 14.7301 4.55019 14.3376C4.55019 13.945 4.229 13.6238 3.83643 13.6238H2.82826V5.35318C2.82826 5.00077 3.11822 4.71081 3.47063 4.71081H14.458L12.7494 7.2714C11.7859 7.31155 10.9204 7.69965 10.3762 8.34203C9.53755 9.31898 9.38588 10.8268 9.91673 12.8208C9.97918 13.0662 10.1665 13.258 10.4119 13.3249C10.6573 13.3918 10.916 13.3294 11.0989 13.1554C11.603 12.6736 12.1874 12.7049 12.8119 12.7405H12.8253C13.49 12.7718 14.2439 12.8075 14.9576 12.232C15.7383 11.5985 16.0416 10.5547 15.7606 9.49296C16.1844 8.97549 17.5628 7.2937 18.5844 6.05356C19.0751 5.45579 19.4855 4.9517 19.6818 4.71527H20.5338C20.8862 4.71527 21.1762 5.00523 21.1762 5.35765V13.6283H7.40521C7.01264 13.6283 6.69145 13.9495 6.69145 14.342C6.69145 14.7346 7.01264 15.0558 7.40521 15.0558H21.1717V16.8759C21.1717 17.2283 20.8818 17.5182 20.5294 17.5182H3.47063C3.11822 17.5182 2.82826 17.2283 2.82826 16.8759V15.0513ZM19.374 2.44017C19.4007 2.65876 19.3383 2.87289 19.2 3.0424L16.3673 6.49519L15.4439 5.8082L17.9331 2.09668C18.0535 1.91378 18.2409 1.79333 18.455 1.75765C18.6691 1.72196 18.8877 1.77103 19.0617 1.90486C19.2402 2.02976 19.3472 2.22159 19.374 2.44017ZM14.1011 7.8201L14.6543 6.99036L15.4662 7.59259L14.8327 8.36434L14.1011 7.8201ZM13.9851 11.1703C13.7398 11.3398 13.3428 11.3264 12.8833 11.3086H12.8342C12.2989 11.2863 11.7011 11.264 11.09 11.4959C10.974 10.7153 11.0231 10.0907 11.2283 9.63571C11.4468 9.15393 11.8349 8.86397 12.4149 8.74352C12.571 8.71229 12.7405 8.69445 12.8877 8.68999L14.3599 9.78292C14.5383 10.403 14.4134 10.8714 13.9851 11.1703Z" fill="white"/>
<path d="M5.17027 14.8907C5.3041 14.9978 5.46023 15.0513 5.62082 15.0513C5.66097 15.0513 5.70112 15.0468 5.73681 15.0424L5.76357 15.0379C5.95094 14.9978 6.11599 14.8907 6.21859 14.7301C6.3212 14.574 6.35688 14.3821 6.3212 14.1992C6.28105 14.0119 6.17398 13.8468 6.01339 13.7442C5.85726 13.6416 5.66543 13.6059 5.48253 13.6416C5.14796 13.7085 4.91153 13.9985 4.91153 14.3375C4.90707 14.5472 5.00075 14.7524 5.17027 14.8907Z" fill="white"/>
</svg>
