<svg width="24" height="24" viewBox="0 0 24 24" fill="none" xmlns="http://www.w3.org/2000/svg">
<g clip-path="url(#clip0_20_165)">
<path d="M16.752 11.4347C16.1327 8.16644 13.2541 5.7196 9.84375 5.7196C6.40411 5.7196 3.49091 8.20453 2.91467 11.5502C1.19879 12.1065 0 13.7198 0 15.5634C0 17.8895 1.89258 19.7821 4.21875 19.7821H17.6248C19.9512 19.7821 21.8436 17.8895 21.8436 15.5634C21.8436 12.9019 19.3872 10.8795 16.752 11.4347ZM17.6248 18.3759H4.21875C2.66785 18.3759 1.40625 17.1141 1.40625 15.5634C1.40625 14.2181 2.36279 13.0568 3.68097 12.8023C3.98602 12.7433 4.21619 12.4912 4.24713 12.1819C4.53589 9.2995 6.94189 7.12585 9.84375 7.12585C12.8148 7.12585 15.2812 9.44653 15.4587 12.409C15.4883 12.9028 16.0062 13.2123 16.4548 13.0056C18.2985 12.1561 20.4373 13.5095 20.4373 15.5634C20.4373 17.1141 19.1757 18.3759 17.6248 18.3759Z" fill="white"/>
<path d="M12.3113 12.8488L8.74878 10.7394C8.28094 10.4624 7.6875 10.8002 7.6875 11.3446V15.5631C7.6875 16.1068 8.2804 16.4455 8.74878 16.1683L12.3113 14.0589C12.7701 13.7872 12.7709 13.1209 12.3113 12.8488ZM9.09375 14.3297V12.578L10.5731 13.4539L9.09375 14.3297Z" fill="white"/>
<path d="M17.2991 8.05963C17.5084 8.38684 17.9432 8.48224 18.2703 8.27314C18.5973 8.06385 18.6929 7.62897 18.4838 7.30194C18.048 6.62061 17.5281 5.99366 16.9389 5.43848C16.6562 5.17206 16.2112 5.18543 15.945 5.46814C15.6788 5.75067 15.692 6.19562 15.9745 6.46204C16.4799 6.93811 16.9255 7.47553 17.2991 8.05963Z" fill="white"/>
<path d="M17.2903 3.87771C18.3913 4.77456 19.3017 5.85488 19.9958 7.08864C20.1865 7.42721 20.6153 7.54696 20.9535 7.35653C21.2919 7.1661 21.4118 6.73745 21.2214 6.39889C20.4404 5.01113 19.4167 3.79604 18.1785 2.7875C17.8775 2.54214 17.4346 2.58736 17.1892 2.88839C16.944 3.1896 16.9893 3.63235 17.2903 3.87771Z" fill="white"/>
<path d="M23.9209 5.47937C22.8483 3.41138 21.2897 1.58087 19.4136 0.185791C19.1021 -0.0458371 18.6616 0.0187991 18.4299 0.330445C18.1981 0.641907 18.2629 1.08246 18.5746 1.31409C20.2804 2.58282 21.6974 4.24689 22.6725 6.12683C22.8514 6.47162 23.276 6.60583 23.6204 6.42712C23.9652 6.24841 24.0998 5.82398 23.9209 5.47937Z" fill="white"/>
</g>
<defs>
<clipPath id="clip0_20_165">
<rect width="24" height="24" fill="white"/>
</clipPath>
</defs>
</svg>
