<svg width="362" height="106" viewBox="0 0 362 106" fill="none" xmlns="http://www.w3.org/2000/svg">
<g clip-path="url(#clip0_32_301)">
<path d="M173.11 73.4668H173.703C173.703 73.9179 173.647 74.4817 173.562 75.1583C173.477 75.8349 173.336 76.4833 173.166 77.1317C172.855 77.3009 172.516 77.47 172.148 77.5828C171.78 77.7237 171.413 77.8083 170.988 77.8929C170.593 77.9775 170.197 78.0339 169.829 78.062C169.433 78.0902 169.094 78.1184 168.754 78.1184C167.397 78.1184 166.265 77.9211 165.304 77.5546C164.371 77.1599 163.607 76.6807 163.013 76.0604C162.419 75.4402 162.023 74.7636 161.74 73.9743C161.458 73.1849 161.345 72.4519 161.345 71.6908C161.345 70.0839 161.571 68.5897 162.052 67.2647C162.504 65.9397 163.183 64.812 164.031 63.8535C164.88 62.895 165.926 62.162 167.142 61.6546C168.358 61.119 169.744 60.8652 171.271 60.8652C172.318 60.8652 173.223 60.9498 173.958 61.0908C174.693 61.2317 175.315 61.4291 175.796 61.6828C175.74 61.9365 175.683 62.2466 175.598 62.5849C175.513 62.9232 175.4 63.2897 175.287 63.6562C175.174 64.0509 175.033 64.4174 174.92 64.7839C174.778 65.1503 174.665 65.4886 174.552 65.7706H173.93L173.421 62.3312C173.223 62.2466 172.912 62.1902 172.487 62.162C172.063 62.1339 171.667 62.1057 171.243 62.1057C170.197 62.1057 169.207 62.303 168.33 62.7259C167.425 63.1206 166.661 63.7408 166.011 64.5301C165.36 65.3195 164.851 66.3062 164.484 67.5184C164.116 68.7025 163.946 70.0839 163.946 71.6626C163.946 72.6493 164.116 73.4668 164.455 74.1434C164.795 74.82 165.219 75.3557 165.756 75.7785C166.265 76.2014 166.831 76.4833 167.453 76.6525C168.047 76.8216 168.641 76.9062 169.178 76.878C169.716 76.9062 170.168 76.8498 170.564 76.7652C170.932 76.6807 171.215 76.5679 171.384 76.4551L173.11 73.4668Z" fill="white"/>
<path d="M175.966 73.3825C175.966 72.5368 176.107 71.6629 176.362 70.7607C176.616 69.8586 177.012 69.0129 177.55 68.2517C178.087 67.4905 178.766 66.8703 179.558 66.3629C180.378 65.8836 181.311 65.6299 182.386 65.6299C183.63 65.6299 184.563 66.0246 185.186 66.7857C185.808 67.5469 186.119 68.6746 186.119 70.1687C186.119 71.2118 185.978 72.2267 185.666 73.1852C185.355 74.1437 184.931 74.9895 184.394 75.7224C183.856 76.4554 183.206 77.0474 182.442 77.4703C181.679 77.8932 180.83 78.1187 179.925 78.1187C178.709 78.1187 177.719 77.724 177.012 76.9347C176.305 76.1453 175.966 74.9331 175.966 73.3825ZM181.962 66.6448C181.17 66.673 180.547 66.9267 180.038 67.4059C179.558 67.8852 179.162 68.5054 178.879 69.2384C178.596 69.9714 178.398 70.7607 178.285 71.5783C178.172 72.424 178.115 73.1852 178.115 73.89C178.115 74.8203 178.313 75.5815 178.738 76.1735C179.162 76.7655 179.699 77.0474 180.406 77.0474C180.972 77.0474 181.453 76.8501 181.905 76.4272C182.329 76.0044 182.725 75.4687 183.036 74.7639C183.347 74.0873 183.574 73.298 183.743 72.424C183.913 71.5501 183.998 70.6762 183.998 69.8022C183.998 68.8719 183.828 68.1107 183.517 67.5469C183.178 66.9549 182.669 66.673 181.962 66.6448Z" fill="white"/>
<path d="M196.385 71.0143C196.498 70.5351 196.583 70.0558 196.696 69.6329C196.781 69.2101 196.838 68.7872 196.838 68.3925C196.838 68.026 196.753 67.7159 196.583 67.4622C196.413 67.2085 196.159 67.0675 195.791 67.0675C195.367 67.0675 194.914 67.2367 194.49 67.6032C194.038 67.9415 193.642 68.3643 193.246 68.8718C192.85 69.351 192.51 69.8867 192.199 70.4223C191.888 70.9579 191.662 71.409 191.492 71.7473L190.22 77.8367H188.212L190.305 67.2931L188.834 67.0675L188.89 66.4755C189.117 66.3627 189.371 66.25 189.654 66.1654C189.937 66.0526 190.22 65.9681 190.503 65.8835C190.785 65.7989 191.096 65.7425 191.351 65.6861C191.634 65.6298 191.888 65.6016 192.115 65.6016L192.595 65.8835L191.69 70.1122H191.803C192.115 69.4638 192.454 68.8718 192.85 68.3361C193.246 67.8005 193.642 67.3212 194.094 66.8984C194.518 66.5037 194.999 66.1654 195.48 65.9399C195.961 65.7143 196.442 65.6016 196.951 65.6016C197.629 65.6016 198.11 65.7989 198.421 66.2218C198.732 66.6446 198.874 67.1803 198.874 67.8005C198.874 68.1388 198.845 68.5899 198.761 69.0973C198.676 69.6329 198.591 70.1122 198.478 70.5633L197.12 76.4271H198.902V77.0473C198.591 77.301 198.195 77.4984 197.743 77.6675C197.29 77.8367 196.838 77.893 196.413 77.893C195.961 77.893 195.621 77.8085 195.452 77.6111C195.282 77.4138 195.197 77.2165 195.197 76.9909C195.197 76.6808 195.225 76.3707 195.31 76.0042C195.395 75.6377 195.48 75.2994 195.537 74.9329L196.385 71.0143Z" fill="white"/>
<path d="M206.453 74.9895C206.425 74.623 206.34 74.2847 206.142 74.0028C205.944 73.7208 205.69 73.4671 205.378 73.2134C205.067 72.9597 204.728 72.7059 204.389 72.4522C204.049 72.1985 203.71 71.9166 203.399 71.6065C203.088 71.2964 202.833 70.9299 202.635 70.5352C202.437 70.1405 202.324 69.6331 202.324 69.0692C202.324 68.5054 202.437 67.998 202.663 67.5751C202.89 67.1522 203.201 66.7857 203.597 66.5038C203.993 66.2219 204.445 65.9964 205.011 65.8554C205.548 65.7145 206.17 65.6299 206.821 65.6299C207.245 65.6299 207.698 65.6581 208.207 65.7426C208.716 65.8272 209.225 65.9964 209.677 66.2501C209.677 66.4192 209.649 66.6166 209.592 66.8703C209.536 67.0958 209.451 67.3214 209.338 67.5469C209.225 67.7724 209.112 67.9698 208.998 68.1389C208.857 68.3081 208.744 68.449 208.603 68.5054L206.821 66.7012C206.481 66.7294 206.199 66.7575 205.916 66.8139C205.633 66.8703 205.378 66.9831 205.18 67.124C204.983 67.265 204.813 67.4623 204.7 67.6879C204.587 67.9134 204.53 68.1953 204.53 68.5618C204.53 68.9847 204.643 69.323 204.841 69.6049C205.039 69.8868 205.294 70.1687 205.605 70.4224C205.916 70.6762 206.255 70.9299 206.595 71.1836C206.962 71.4373 207.273 71.7192 207.584 72.0293C207.895 72.3395 208.15 72.7059 208.348 73.1006C208.546 73.4953 208.659 73.9746 208.659 74.5384C208.659 75.1022 208.518 75.6097 208.263 76.0607C208.009 76.5118 207.641 76.8783 207.188 77.1884C206.736 77.4985 206.199 77.724 205.605 77.8932C205.011 78.0623 204.36 78.1187 203.71 78.1187C203.059 78.1187 202.437 78.0623 201.872 77.9214C201.334 77.7804 200.882 77.6113 200.571 77.4139C200.655 76.9911 200.74 76.5964 200.853 76.2017C200.967 75.807 201.193 75.4405 201.56 75.1304L203.71 77.0756C204.049 77.0756 204.389 77.0474 204.7 76.9629C205.039 76.8783 205.322 76.7655 205.576 76.5964C205.831 76.4272 206.057 76.2017 206.227 75.948C206.34 75.6379 206.425 75.3559 206.453 74.9895Z" fill="white"/>
<path d="M222.008 76.4553V77.0473C221.697 77.301 221.301 77.5266 220.848 77.6675C220.396 77.8367 219.943 77.9212 219.519 77.9212C219.067 77.9212 218.727 77.8367 218.529 77.6393C218.331 77.442 218.218 77.2447 218.218 77.0191C218.218 76.7372 218.246 76.2579 218.331 75.5814C218.416 74.9048 218.586 74.0872 218.869 73.1287H218.784C218.586 73.5798 218.331 74.0872 218.02 74.651C217.709 75.2149 217.341 75.7505 216.917 76.2579C216.493 76.7654 215.984 77.1883 215.447 77.5548C214.909 77.8931 214.287 78.0904 213.608 78.0904C213.043 78.0904 212.59 77.8931 212.194 77.4984C211.798 77.1037 211.629 76.5681 211.629 75.8351C211.629 75.4968 211.685 74.9611 211.798 74.2845C211.911 73.6079 212.053 72.8468 212.194 72.0574C212.364 71.2399 212.534 70.4223 212.703 69.5766C212.873 68.7308 213.043 67.9697 213.184 67.2649L211.713 67.0393V66.4473C211.968 66.3627 212.251 66.25 212.534 66.1654C212.816 66.0808 213.128 65.9962 213.41 65.9117C213.693 65.8271 213.976 65.7707 214.259 65.7143C214.542 65.6579 214.768 65.6298 214.994 65.6016L215.531 65.8835C215.277 67.0675 215.022 68.1952 214.768 69.2665C214.513 70.3377 214.259 71.4654 214.033 72.6494C213.948 73.0441 213.863 73.467 213.778 73.9181C213.693 74.3973 213.637 74.9048 213.637 75.4686C213.637 75.8069 213.721 76.0606 213.919 76.2861C214.089 76.4835 214.315 76.5962 214.542 76.5962C214.881 76.5962 215.249 76.4835 215.588 76.2861C215.927 76.0888 216.267 75.8069 216.578 75.4686C216.889 75.1303 217.172 74.7638 217.455 74.3691C217.737 73.9744 217.992 73.5516 218.218 73.1569C218.444 72.7622 218.642 72.3957 218.784 72.0574C218.925 71.7191 219.038 71.4372 219.123 71.2399L220.17 65.8835H222.149L220.198 76.4553H222.008Z" fill="white"/>
<path d="M227.438 61.5421L225.741 61.3165V60.7245C225.967 60.6399 226.222 60.5272 226.505 60.4426C226.787 60.358 227.098 60.2453 227.438 60.1607C227.777 60.0761 228.088 59.9915 228.399 59.9352C228.71 59.8788 228.993 59.8506 229.248 59.8506L229.729 60.1043L226.42 76.4272H228.173V77.0474C227.862 77.3011 227.466 77.4985 227.014 77.6676C226.561 77.8368 226.109 77.8931 225.684 77.8931C225.232 77.8931 224.893 77.7804 224.666 77.583C224.44 77.3857 224.355 77.132 224.355 76.8782C224.355 76.5681 224.383 76.258 224.44 75.9479C224.497 75.6378 224.553 75.2995 224.638 74.9612L227.438 61.5421Z" fill="white"/>
<path d="M231.199 66.4754C231.51 66.3062 231.85 66.1371 232.217 65.9961C232.585 65.8552 232.924 65.7424 233.292 65.6578L233.688 63.8536C233.914 63.6844 234.169 63.5153 234.452 63.4025C234.734 63.2615 235.045 63.1488 235.385 63.0078L235.894 63.2897L235.328 65.9115H238.298C238.326 66.1089 238.326 66.3062 238.298 66.5317C238.27 66.7573 238.185 66.9546 238.072 67.152H235.102L233.603 74.0307C233.547 74.3408 233.49 74.5945 233.462 74.82C233.433 75.0456 233.405 75.2711 233.405 75.4403C233.405 75.8631 233.518 76.145 233.773 76.3424C233.999 76.5397 234.282 76.6243 234.565 76.6243C234.961 76.6243 235.385 76.5397 235.837 76.3988C236.29 76.2578 236.714 76.0887 237.082 75.8913L237.336 76.3142C237.195 76.5115 236.969 76.7371 236.686 76.9344C236.403 77.1317 236.064 77.3291 235.724 77.4982C235.357 77.6674 234.989 77.8083 234.593 77.9211C234.197 78.0339 233.829 78.0903 233.49 78.0903C232.783 78.0903 232.246 77.9211 231.85 77.611C231.454 77.3009 231.256 76.7935 231.256 76.145C231.256 75.9195 231.284 75.6658 231.312 75.4121C231.341 75.1302 231.397 74.8764 231.454 74.5945L233.038 67.152H231.227L231.199 66.4754Z" fill="white"/>
<path d="M239.627 67.0677V66.4757C239.853 66.3911 240.136 66.2784 240.447 66.1656C240.758 66.0528 241.069 65.9683 241.38 65.8837C241.692 65.7991 242.003 65.7427 242.285 65.6864C242.568 65.63 242.823 65.6018 243.049 65.6018L243.473 65.8837L241.239 76.4555H243.021V77.0757C242.681 77.3294 242.285 77.5268 241.861 77.6959C241.409 77.8651 240.985 77.9215 240.56 77.9215C240.108 77.9215 239.768 77.8087 239.57 77.6114C239.373 77.414 239.259 77.1603 239.259 76.9066C239.259 76.5965 239.288 76.2864 239.344 75.9763C239.401 75.6661 239.457 75.3278 239.542 74.9895L241.211 67.2933L239.627 67.0677ZM241.578 61.7677C241.578 61.3449 241.72 61.0348 241.974 60.781C242.229 60.5555 242.568 60.4146 242.964 60.4146C243.417 60.4146 243.756 60.5273 244.011 60.781C244.265 61.0066 244.407 61.3449 244.407 61.7677C244.407 62.1624 244.265 62.4725 244.011 62.6981C243.756 62.9236 243.417 63.0364 242.964 63.0364C242.54 63.0364 242.229 62.9236 241.974 62.6981C241.692 62.4725 241.578 62.1624 241.578 61.7677Z" fill="white"/>
<path d="M253.824 71.0143C253.937 70.5351 254.022 70.0558 254.135 69.6329C254.22 69.2101 254.277 68.7872 254.277 68.3925C254.277 68.026 254.192 67.7159 254.022 67.4622C253.853 67.2085 253.598 67.0675 253.23 67.0675C252.806 67.0675 252.354 67.2367 251.929 67.6032C251.477 67.9415 251.081 68.3643 250.685 68.8718C250.289 69.351 249.95 69.8867 249.639 70.4223C249.328 70.9579 249.101 71.409 248.932 71.7473L247.659 77.8367H245.651L247.744 67.2931L246.273 67.0675L246.33 66.4755C246.556 66.3627 246.81 66.25 247.093 66.1654C247.376 66.0526 247.659 65.9681 247.942 65.8835C248.225 65.7989 248.536 65.7425 248.79 65.6861C249.073 65.6298 249.328 65.6016 249.554 65.6016L250.035 65.8835L249.13 70.1122H249.243C249.554 69.4638 249.893 68.8718 250.289 68.3361C250.685 67.8005 251.081 67.3212 251.533 66.8984C251.958 66.5037 252.438 66.1654 252.919 65.9399C253.4 65.7143 253.881 65.6016 254.39 65.6016C255.069 65.6016 255.549 65.7989 255.86 66.2218C256.172 66.6446 256.313 67.1803 256.313 67.8005C256.313 68.1388 256.285 68.5899 256.2 69.0973C256.115 69.6329 256.03 70.1122 255.917 70.5633L254.56 76.4271H256.341V77.0473C256.03 77.301 255.634 77.4984 255.182 77.6675C254.729 77.8367 254.277 77.893 253.853 77.893C253.4 77.893 253.061 77.8085 252.891 77.6111C252.721 77.4138 252.636 77.2165 252.636 76.9909C252.636 76.6808 252.665 76.3707 252.75 76.0042C252.834 75.6377 252.919 75.2994 252.976 74.9329L253.824 71.0143Z" fill="white"/>
<path d="M264.486 65.6016C265.25 65.6016 265.872 65.6862 266.353 65.8835C266.834 66.0808 267.23 66.2782 267.484 66.5037C267.625 66.3628 267.823 66.25 268.05 66.109C268.276 65.9681 268.53 65.8553 268.813 65.7425C269.096 65.6298 269.351 65.517 269.662 65.4324C269.945 65.3479 270.227 65.2633 270.482 65.1787C270.538 65.2633 270.567 65.3761 270.595 65.5452C270.623 65.7144 270.652 65.8835 270.623 66.0808C270.623 66.2782 270.595 66.4755 270.538 66.6729C270.482 66.8702 270.397 67.0393 270.284 67.2085L267.823 67.0394C267.88 67.1803 267.908 67.3495 267.965 67.5186C268.021 67.6878 268.05 67.9133 268.05 68.1388C268.05 68.7872 267.908 69.3511 267.654 69.9149C267.399 70.4505 267.032 70.9298 266.579 71.2963C266.127 71.6909 265.589 72.0011 264.967 72.2266C264.345 72.4521 263.694 72.5649 263.016 72.5649C262.733 72.5649 262.535 72.5649 262.365 72.5649C262.195 72.5649 261.997 72.5367 261.8 72.4803C261.658 72.6495 261.46 72.8186 261.206 73.0441C260.951 73.2697 260.838 73.4952 260.838 73.7489C260.838 74.0308 261.008 74.2282 261.375 74.3691C261.715 74.5101 262.167 74.6511 262.705 74.7638C263.242 74.8766 263.807 75.0175 264.43 75.1585C265.052 75.2995 265.617 75.4686 266.155 75.6941C266.692 75.9197 267.145 76.2298 267.484 76.5963C267.823 76.9628 268.021 77.442 268.021 78.0622C268.021 78.7952 267.823 79.4718 267.399 80.0638C266.975 80.6558 266.409 81.1633 265.731 81.5862C265.024 82.009 264.26 82.3191 263.355 82.5729C262.478 82.7984 261.573 82.9112 260.668 82.9112C259.933 82.9112 259.311 82.8266 258.773 82.6856C258.236 82.5447 257.812 82.3191 257.472 82.0654C257.133 81.8117 256.879 81.5016 256.737 81.1633C256.567 80.825 256.511 80.4867 256.511 80.1202C256.511 79.6691 256.624 79.2745 256.822 78.8798C257.02 78.4851 257.275 78.1468 257.614 77.8085C257.953 77.4702 258.321 77.1601 258.773 76.8782C259.226 76.5963 259.65 76.3143 260.103 76.0606C259.876 75.9197 259.678 75.7505 259.509 75.5532C259.367 75.3276 259.282 75.1021 259.282 74.8202C259.282 74.5947 259.367 74.3409 259.509 74.059C259.678 73.8053 259.848 73.5516 260.074 73.2979C260.301 73.0723 260.499 72.8468 260.725 72.6776C260.951 72.5085 261.092 72.3675 261.206 72.283C261.008 72.2266 260.81 72.142 260.612 72.0292C260.414 71.8883 260.216 71.7473 260.046 71.5218C259.876 71.3245 259.735 71.0707 259.622 70.817C259.509 70.5351 259.452 70.2532 259.452 69.9149C259.452 69.2947 259.594 68.7308 259.848 68.1952C260.103 67.6596 260.47 67.2085 260.923 66.842C261.375 66.4755 261.913 66.1654 262.535 65.9681C263.129 65.7144 263.779 65.6016 264.486 65.6016ZM261.715 81.8117C262.195 81.8117 262.705 81.7271 263.185 81.5862C263.666 81.4452 264.119 81.2479 264.486 80.9941C264.882 80.7404 265.193 80.4021 265.448 80.0356C265.702 79.6409 265.815 79.2181 265.815 78.7106C265.815 78.2314 265.617 77.8649 265.222 77.6112C264.826 77.3574 264.345 77.1319 263.807 76.9909C263.242 76.8218 262.676 76.709 262.082 76.5963C261.488 76.4835 260.979 76.3707 260.527 76.2298C259.792 76.7654 259.254 77.3292 258.971 77.9213C258.689 78.5133 258.547 79.0489 258.575 79.5564C258.547 80.2612 258.83 80.825 259.396 81.2197C260.018 81.6144 260.781 81.8117 261.715 81.8117ZM264.288 66.5601C263.836 66.5601 263.412 66.6447 263.044 66.8138C262.676 66.983 262.365 67.2367 262.111 67.5186C261.856 67.8005 261.658 68.167 261.545 68.5617C261.404 68.9564 261.347 69.3792 261.347 69.8303C261.347 70.4223 261.545 70.8734 261.941 71.1553C262.337 71.4372 262.761 71.5782 263.185 71.5782C263.666 71.5782 264.062 71.4936 264.43 71.3245C264.769 71.1553 265.052 70.9298 265.278 70.6479C265.504 70.3659 265.674 70.0276 265.787 69.6612C265.9 69.2947 265.957 68.9282 265.957 68.5053C265.957 67.9133 265.815 67.434 265.533 67.0675C265.278 66.7292 264.854 66.5601 264.288 66.5601Z" fill="white"/>
<path d="M103.566 43.4994H97.542V42.7383C98.1925 42.4563 98.843 42.259 99.4934 42.118L106.366 24.7803H107.158L114.03 42.118C114.398 42.1744 114.737 42.259 115.105 42.3436C115.444 42.4281 115.783 42.5691 116.095 42.7383V43.4994H109.109V42.7383C109.477 42.5973 109.844 42.4845 110.212 42.3718C110.58 42.259 110.976 42.1744 111.315 42.118L109.477 37.2973H103.029L101.247 42.118C102.01 42.2308 102.774 42.4281 103.566 42.7383V43.4994ZM103.538 35.9441H108.996L106.875 30.3622L106.366 28.1069H106.309L105.63 30.4186L103.538 35.9441Z" fill="white"/>
<path d="M116.858 25.0903H124.296V25.8515C123.872 26.0207 123.419 26.1334 122.995 26.2462C122.571 26.3589 122.118 26.4435 121.694 26.4999V42.118H127.944L129.556 37.8893H130.263C130.32 38.2558 130.377 38.6786 130.405 39.1579C130.461 39.6371 130.49 40.1446 130.518 40.652C130.546 41.1595 130.546 41.6669 130.546 42.1744C130.546 42.6536 130.546 43.1047 130.518 43.4994H116.886V42.7382C117.311 42.5409 117.707 42.3999 118.074 42.3153C118.442 42.2308 118.781 42.1462 119.092 42.118V26.4999C118.668 26.4435 118.272 26.3308 117.905 26.218C117.537 26.1052 117.169 25.9643 116.886 25.8233V25.0903H116.858Z" fill="white"/>
<path d="M144.602 25.0903C144.574 25.7951 144.545 26.4999 144.517 27.2047C144.461 27.9095 144.404 28.6425 144.319 29.3472H143.612L142.509 26.4435H136.598V33.4068H141.01L142.057 31.4616H142.735C142.849 33.2095 142.849 34.9574 142.735 36.7898H142.057L141.01 34.7882H136.598V42.118H142.849L144.178 38.9605H144.857C144.97 39.6935 145.083 40.4547 145.139 41.1877C145.196 41.9488 145.196 42.71 145.168 43.4712H131.791V42.71C132.413 42.4281 133.176 42.2308 134.025 42.0898V26.4999C133.657 26.4435 133.29 26.3308 132.922 26.218C132.554 26.1052 132.158 25.9643 131.819 25.8233V25.0903H144.602Z" fill="white"/>
<path d="M147.798 25.0903H154.698V25.8515C154.359 25.9925 154.048 26.1052 153.709 26.2462C153.369 26.3589 153.002 26.4435 152.662 26.5281V41.2722C152.662 42.5127 152.521 43.4994 152.238 44.2887C151.955 45.0781 151.587 45.7265 151.163 46.2058C150.739 46.685 150.287 47.0515 149.806 47.277C149.325 47.5026 148.901 47.6717 148.477 47.7563L148.165 47.3616C148.448 47.1361 148.675 46.8824 148.901 46.5722C149.127 46.2903 149.325 45.9238 149.495 45.4728C149.664 45.0217 149.806 44.4861 149.891 43.8659C149.975 43.2457 150.032 42.4563 150.032 41.5542V26.4999C149.636 26.4153 149.24 26.3026 148.872 26.218C148.505 26.1052 148.137 25.9925 147.826 25.8515V25.0903H147.798Z" fill="white"/>
<path d="M161.995 43.4994H155.971V42.7383C156.622 42.4563 157.272 42.259 157.923 42.118L164.795 24.7803H165.587L172.459 42.118C172.827 42.1744 173.166 42.259 173.534 42.3436C173.873 42.4281 174.212 42.5691 174.524 42.7383V43.4994H167.538V42.7383C167.906 42.5973 168.273 42.4845 168.641 42.3718C169.009 42.259 169.405 42.1744 169.744 42.118L167.906 37.2973H161.458L159.676 42.118C160.44 42.2308 161.203 42.4281 161.995 42.7383V43.4994ZM161.995 35.9441H167.453L165.332 30.3622L164.823 28.1069H164.767L164.088 30.4186L161.995 35.9441Z" fill="white"/>
<path d="M187.703 25.0903H193.557V25.8515C192.793 26.3308 192.058 26.6972 191.323 26.8946V43.8095H189.767L179.954 29.3191L178.907 27.2611H178.822L179.077 29.3191V41.8079C179.812 42.0052 180.519 42.3153 181.17 42.7382V43.4994H175.315V42.7382C175.655 42.5409 175.994 42.3717 176.362 42.2308C176.73 42.0898 177.125 41.9488 177.55 41.8361V26.7536C177.182 26.6127 176.843 26.4717 176.475 26.3026C176.107 26.1334 175.796 25.9925 175.485 25.8233V25.0903H180.067L188.608 37.5792L189.852 39.8345H189.965L189.824 37.5792V26.8946C189.456 26.7254 189.088 26.5563 188.721 26.3871C188.381 26.218 188.042 26.0207 187.731 25.8233V25.0903H187.703Z" fill="white"/>
<path d="M195.141 43.4994V42.7383C195.763 42.4564 196.526 42.259 197.375 42.1181V26.5C196.951 26.4154 196.555 26.3026 196.187 26.1899C195.819 26.0771 195.452 25.9643 195.169 25.8234V25.0904H197.94C198.252 25.0904 198.619 25.0904 199.015 25.0622C199.439 25.034 199.864 25.034 200.316 25.0058C200.769 24.9776 201.193 24.9494 201.589 24.9213C201.985 24.8931 202.324 24.8931 202.607 24.8931C205.69 24.8931 208.037 25.6824 209.705 27.2893C211.346 28.8963 212.194 31.1516 212.194 34.0835C212.194 35.4649 211.996 36.7617 211.572 37.9457C211.176 39.1298 210.554 40.1447 209.705 41.0186C208.885 41.8643 207.811 42.5409 206.538 43.0484C205.265 43.5276 203.766 43.7814 202.013 43.7814C201.73 43.7814 201.447 43.7814 201.08 43.7532C200.74 43.725 200.373 43.6968 200.005 43.6686C199.637 43.6404 199.241 43.6122 198.845 43.584C198.45 43.5558 198.082 43.5558 197.743 43.5558H195.141V43.4994ZM202.183 26.2463C201.702 26.2463 201.249 26.2463 200.825 26.2463C200.401 26.2463 200.062 26.2744 199.807 26.3308V42.2872C199.892 42.3154 200.062 42.3154 200.288 42.3154C200.514 42.3154 200.769 42.3436 201.051 42.3436C201.334 42.3436 201.589 42.3436 201.815 42.3436C202.041 42.3436 202.239 42.3436 202.352 42.3436C203.597 42.3436 204.671 42.1181 205.52 41.667C206.397 41.2159 207.104 40.5957 207.641 39.8346C208.178 39.0734 208.602 38.1994 208.857 37.1846C209.112 36.1979 209.225 35.1266 209.225 34.0271C209.225 33.1814 209.112 32.2792 208.857 31.3489C208.602 30.4186 208.207 29.5729 207.669 28.8117C207.104 28.0505 206.397 27.4303 205.492 26.9229C204.587 26.5 203.484 26.2463 202.183 26.2463Z" fill="white"/>
<path d="M219.18 42.1179C219.604 42.2025 220 42.2871 220.368 42.3999C220.735 42.4844 221.131 42.6254 221.47 42.7663V43.5275H214.344V42.7663C214.74 42.5972 215.107 42.4562 215.475 42.3717C215.843 42.2871 216.21 42.2025 216.55 42.1461V26.4999C216.069 26.4153 215.673 26.3025 215.305 26.1897C214.937 26.077 214.626 25.9642 214.315 25.8233V25.0903H216.691C217.426 25.0903 218.218 25.0621 219.067 24.9775C219.915 24.9211 220.763 24.8647 221.584 24.8647C222.46 24.8647 223.309 24.9493 224.072 25.1467C224.836 25.344 225.515 25.6541 226.08 26.077C226.646 26.4999 227.07 27.0355 227.41 27.6839C227.721 28.3323 227.89 29.1217 227.89 30.0238C227.89 31.2924 227.551 32.3637 226.844 33.2094C226.137 34.0552 225.204 34.6472 223.987 35.0137C224.751 36.1977 225.571 37.3818 226.42 38.5658C227.268 39.7499 228.145 40.9057 229.078 42.0616L230.549 42.8227V43.4711H227.24L226.222 42.7382C225.713 42.1179 225.26 41.5259 224.836 40.9339C224.412 40.3419 224.044 39.7499 223.676 39.1578C223.309 38.5658 222.969 37.9456 222.658 37.3254C222.347 36.7052 222.008 36.0286 221.697 35.352H219.151V42.1179H219.18ZM221.018 26.2461C220.594 26.2461 220.226 26.2461 219.943 26.2743C219.66 26.3025 219.406 26.3307 219.18 26.3871V34.1961H221.131C222.375 34.1961 223.365 33.8014 224.101 33.0403C224.836 32.2791 225.204 31.2642 225.204 29.9956C225.204 28.6988 224.808 27.7685 224.044 27.1483C223.252 26.5562 222.234 26.2461 221.018 26.2461Z" fill="white"/>
<path d="M231.425 34.3091C231.425 32.9277 231.623 31.6873 232.019 30.5033C232.415 29.3474 232.981 28.3325 233.688 27.4868C234.423 26.641 235.328 25.9644 236.375 25.5134C237.449 25.0341 238.665 24.8086 239.995 24.8086C241.352 24.8086 242.568 25.0341 243.615 25.5134C244.689 25.9926 245.594 26.641 246.301 27.4868C247.037 28.3325 247.602 29.3474 247.97 30.5033C248.366 31.6591 248.564 32.9277 248.564 34.3091C248.564 35.6905 248.366 36.9591 247.97 38.115C247.574 39.2708 247.008 40.2857 246.301 41.1315C245.566 41.9772 244.661 42.6538 243.615 43.1049C242.54 43.5841 241.324 43.8097 239.995 43.8097C238.637 43.8097 237.421 43.5841 236.375 43.1049C235.3 42.6256 234.395 41.9772 233.688 41.1315C232.953 40.2857 232.387 39.2708 232.019 38.115C231.623 36.9309 231.425 35.6623 231.425 34.3091ZM234.338 34.3091C234.338 35.4368 234.452 36.4799 234.706 37.4666C234.961 38.4533 235.328 39.3272 235.809 40.0602C236.29 40.7932 236.912 41.3852 237.647 41.8081C238.383 42.2309 239.259 42.4565 240.278 42.4565C241.211 42.4565 242.003 42.2309 242.681 41.8081C243.36 41.3852 243.926 40.7932 244.378 40.0602C244.831 39.3272 245.142 38.4533 245.368 37.4666C245.594 36.4799 245.708 35.4086 245.708 34.3091C245.708 33.1815 245.594 32.1384 245.368 31.1517C245.142 30.165 244.774 29.291 244.293 28.5581C243.813 27.8251 243.19 27.2331 242.455 26.8102C241.72 26.3873 240.843 26.1618 239.825 26.1618C238.835 26.1618 237.987 26.3873 237.28 26.8102C236.573 27.2331 236.007 27.8251 235.583 28.5581C235.159 29.291 234.819 30.165 234.621 31.1517C234.423 32.1102 234.338 33.1815 234.338 34.3091Z" fill="white"/>
<path d="M258.095 34.3091C258.095 32.9277 258.293 31.6873 258.689 30.5033C259.085 29.3474 259.65 28.3325 260.357 27.4868C261.092 26.641 261.997 25.9644 263.044 25.5134C264.119 25.0341 265.335 24.8086 266.664 24.8086C268.021 24.8086 269.237 25.0341 270.284 25.5134C271.359 25.9926 272.264 26.641 272.971 27.4868C273.706 28.3325 274.272 29.3474 274.639 30.5033C275.035 31.6591 275.233 32.9277 275.233 34.3091C275.233 35.6905 275.035 36.9591 274.639 38.115C274.243 39.2708 273.678 40.2857 272.971 41.1315C272.235 41.9772 271.33 42.6538 270.284 43.1049C269.209 43.5841 267.993 43.8097 266.664 43.8097C265.306 43.8097 264.09 43.5841 263.044 43.1049C261.969 42.6256 261.064 41.9772 260.357 41.1315C259.622 40.2857 259.056 39.2708 258.689 38.115C258.293 36.9309 258.095 35.6623 258.095 34.3091ZM260.979 34.3091C260.979 35.4368 261.092 36.4799 261.347 37.4666C261.602 38.4533 261.969 39.3272 262.45 40.0602C262.931 40.7932 263.553 41.3852 264.288 41.8081C265.024 42.2309 265.9 42.4565 266.918 42.4565C267.852 42.4565 268.644 42.2309 269.322 41.8081C270.001 41.3852 270.567 40.7932 271.019 40.0602C271.472 39.3272 271.783 38.4533 272.009 37.4666C272.235 36.4799 272.348 35.4086 272.348 34.3091C272.348 33.1815 272.235 32.1384 272.009 31.1517C271.783 30.165 271.415 29.291 270.934 28.5581C270.454 27.8251 269.831 27.2331 269.096 26.8102C268.361 26.3873 267.484 26.1618 266.466 26.1618C265.476 26.1618 264.628 26.3873 263.921 26.8102C263.214 27.2331 262.648 27.8251 262.224 28.5581C261.8 29.291 261.46 30.165 261.262 31.1517C261.092 32.1102 260.979 33.1815 260.979 34.3091Z" fill="white"/>
<path d="M282.332 42.1179C282.756 42.2025 283.152 42.2871 283.519 42.3999C283.887 42.4844 284.283 42.6254 284.622 42.7663V43.5275H277.496V42.7663C277.892 42.5972 278.259 42.4562 278.627 42.3717C278.994 42.2871 279.362 42.2025 279.702 42.1461V26.4999C279.221 26.4153 278.825 26.3025 278.457 26.1897C278.089 26.077 277.778 25.9642 277.467 25.8233V25.0903H279.843C280.578 25.0903 281.37 25.0621 282.219 24.9775C283.067 24.9211 283.915 24.8647 284.736 24.8647C285.612 24.8647 286.461 24.9493 287.224 25.1467C287.988 25.344 288.667 25.6541 289.232 26.077C289.798 26.4999 290.222 27.0355 290.562 27.6839C290.873 28.3323 291.042 29.1217 291.042 30.0238C291.042 31.2924 290.703 32.3637 289.996 33.2094C289.289 34.0552 288.356 34.6472 287.139 35.0137C287.903 36.1977 288.723 37.3818 289.572 38.5658C290.42 39.7499 291.297 40.9057 292.23 42.0616L293.701 42.8227V43.4711H290.448L289.43 42.7382C288.921 42.1179 288.469 41.5259 288.044 40.9339C287.62 40.3419 287.253 39.7499 286.885 39.1578C286.517 38.5658 286.178 37.9456 285.867 37.3254C285.556 36.7052 285.216 36.0286 284.905 35.352H282.36V42.1179H282.332ZM284.17 26.2461C283.746 26.2461 283.378 26.2461 283.095 26.2743C282.812 26.3025 282.558 26.3307 282.332 26.3871V34.1961H284.283C285.527 34.1961 286.517 33.8014 287.253 33.0403C287.988 32.2791 288.356 31.2642 288.356 29.9956C288.356 28.6988 287.96 27.7685 287.196 27.1483C286.404 26.5562 285.414 26.2461 284.17 26.2461Z" fill="white"/>
<path d="M304.872 43.4994H297.236V42.7382C297.632 42.5972 298.028 42.4845 298.452 42.3717C298.876 42.259 299.3 42.1744 299.781 42.118V26.4717H295.624L294.182 30.2212H293.503C293.446 29.8829 293.39 29.46 293.361 29.0371C293.333 28.5861 293.305 28.135 293.277 27.6558C293.248 27.2047 293.22 26.7254 293.22 26.2744C293.192 25.8233 293.192 25.4286 293.192 25.0903H308.944C308.944 25.4286 308.944 25.8233 308.916 26.2744C308.888 26.7254 308.888 27.1765 308.86 27.6276C308.831 28.0786 308.803 28.5579 308.775 29.0089C308.746 29.46 308.718 29.8547 308.662 30.2212H307.955L306.54 26.4717H302.411V42.118C302.892 42.2026 303.316 42.2871 303.741 42.3717C304.137 42.4563 304.532 42.5691 304.928 42.7382V43.4994H304.872Z" fill="white"/>
<path d="M317.683 43.4994H310.754V42.7382C311.461 42.4281 312.168 42.2026 312.932 42.118V26.4999C312.564 26.4435 312.197 26.3308 311.857 26.218C311.49 26.1052 311.122 25.9643 310.783 25.8233V25.0903H317.712V25.8515C317.372 25.9925 317.033 26.1052 316.665 26.2462C316.297 26.3589 315.902 26.4435 315.562 26.5281V42.1462C315.93 42.2026 316.326 42.3153 316.693 42.3999C317.061 42.5127 317.429 42.6254 317.712 42.7664V43.4994H317.683Z" fill="white"/>
<path d="M333.464 38.4531H334.171C334.228 38.7914 334.284 39.1861 334.313 39.6371C334.369 40.0882 334.397 40.5111 334.426 40.9903C334.454 41.4414 334.482 41.8925 334.482 42.3435C334.482 42.7946 334.482 43.1893 334.482 43.5276H320.087V42.1744L331.371 26.4717H322.972L321.332 30.1648H320.653C320.596 29.7983 320.54 29.4036 320.511 28.9526C320.455 28.5015 320.427 28.0786 320.398 27.5994C320.37 27.1483 320.342 26.6972 320.342 26.2744C320.342 25.8515 320.342 25.4568 320.342 25.0903H334.199V26.4717L322.972 42.1462H331.824L333.464 38.4531Z" fill="white"/>
<path d="M49.5487 60.753C55.078 60.753 59.5603 56.2849 59.5603 50.7732C59.5603 45.2616 55.078 40.7935 49.5487 40.7935C44.0195 40.7935 39.5372 45.2616 39.5372 50.7732C39.5372 56.2849 44.0195 60.753 49.5487 60.753Z" fill="#E8B138"/>
<path d="M77.4623 62.9517C80.2113 62.9517 82.4398 60.7303 82.4398 57.99C82.4398 55.2497 80.2113 53.0283 77.4623 53.0283C74.7133 53.0283 72.4848 55.2497 72.4848 57.99C72.4848 60.7303 74.7133 62.9517 77.4623 62.9517Z" fill="#DB5286"/>
<path d="M50.9628 84.4053C53.7118 84.4053 55.9403 82.1839 55.9403 79.4436C55.9403 76.7034 53.7118 74.4819 50.9628 74.4819C48.2138 74.4819 45.9853 76.7034 45.9853 79.4436C45.9853 82.1839 48.2138 84.4053 50.9628 84.4053Z" fill="#7676AD"/>
<path d="M22.2291 66.0245C24.9781 66.0245 27.2066 63.8031 27.2066 61.0628C27.2066 58.3225 24.9781 56.1011 22.2291 56.1011C19.4801 56.1011 17.2516 58.3225 17.2516 61.0628C17.2516 63.8031 19.4801 66.0245 22.2291 66.0245Z" fill="#379BA0"/>
<path d="M30.9397 33.0123C33.6887 33.0123 35.9172 30.7908 35.9172 28.0506C35.9172 25.3103 33.6887 23.0889 30.9397 23.0889C28.1907 23.0889 25.9622 25.3103 25.9622 28.0506C25.9622 30.7908 28.1907 33.0123 30.9397 33.0123Z" fill="#9FA352"/>
<path d="M65.16 31.1236C67.909 31.1236 70.1375 28.9022 70.1375 26.1619C70.1375 23.4216 67.909 21.2002 65.16 21.2002C62.411 21.2002 60.1825 23.4216 60.1825 26.1619C60.1825 28.9022 62.411 31.1236 65.16 31.1236Z" fill="#ED8629"/>
<path d="M43.0724 39.3835C43.0724 39.3835 42.535 39.6936 42.2522 39.4117C41.9694 39.1298 42.733 38.0021 42.733 38.0021C42.733 38.0021 50.68 26.4436 56.2231 27.2894C59.5038 27.7968 60.4936 31.208 62.2753 32.1101C65.8388 33.8862 67.4508 31.7154 72.1455 34.45C76.5574 37.0154 77.1795 44.1479 77.2927 45.9521C77.4058 47.7282 77.3209 48.0665 77.3209 48.0665C77.3209 48.0665 77.3492 48.6303 76.8967 48.6021C76.4442 48.5739 71.1839 41.1878 63.6045 38.9606C56.0534 36.7335 50.4538 36.9027 46.8338 38.1149C43.2138 39.3271 43.0724 39.3835 43.0724 39.3835Z" fill="#ED8629"/>
<path d="M36.7373 53.282C36.7373 53.282 36.8787 53.874 36.5111 54.0713C36.1434 54.2687 35.3233 53.1692 35.3233 53.1692C35.3233 53.1692 26.7258 42.0618 29.2428 37.0719C30.7417 34.1118 34.3051 34.2245 35.6909 32.8149C38.4908 29.9958 36.9353 27.7687 40.9512 24.1602C44.7409 20.749 51.7547 22.3559 53.5081 22.807C55.2615 23.258 55.5161 23.4272 55.5161 23.4272C55.5161 23.4272 56.0817 23.5963 55.912 23.991C55.7423 24.4139 47.06 27.1203 42.6198 33.6043C38.1797 40.0884 36.6242 45.4447 36.6525 49.2506C36.6525 53.0846 36.7373 53.282 36.7373 53.282Z" fill="#9FA352"/>
<path d="M58.2028 40.4549C58.2028 40.4549 57.7503 40.032 57.9483 39.6655C58.1462 39.299 59.4472 39.7501 59.4472 39.7501C59.4472 39.7501 72.8242 44.0916 73.5878 49.6171C74.0403 52.9155 71.0142 54.8043 70.6748 56.7777C69.9678 60.6681 72.5131 61.6267 71.2122 66.8703C69.9961 71.832 63.2934 74.4256 61.5966 75.0458C59.8997 75.666 59.5886 75.666 59.5886 75.666C59.5886 75.666 59.0512 75.8352 58.9381 75.4123C58.825 74.9894 64.4812 67.857 64.4812 59.9916C64.4812 52.1261 62.7278 46.8261 60.5784 43.7251C58.3725 40.5676 58.2028 40.4549 58.2028 40.4549Z" fill="#DB5286"/>
<path d="M61.0592 55.1989C61.0592 55.1989 61.2855 54.6351 61.7097 54.6915C62.1339 54.7478 62.1905 56.101 62.1905 56.101C62.1905 56.101 62.6147 70.1122 57.6938 72.7904C54.7808 74.3691 51.9244 72.2548 49.9447 72.6213C46.0419 73.3542 46.0419 76.0606 40.6967 76.7372C35.6344 77.3856 30.7983 72.0574 29.6105 70.7324C28.4227 69.3792 28.3095 69.0691 28.3095 69.0691C28.3095 69.0691 27.9419 68.6181 28.3378 68.3925C28.7055 68.1388 37.3878 70.8452 44.7692 68.026C52.1224 65.2069 56.7605 61.7111 58.9099 58.5537C61.0027 55.3962 61.0592 55.1989 61.0592 55.1989Z" fill="#7676AD"/>
<path d="M48.1347 63.1771C48.1347 63.1771 48.7569 63.2335 48.8134 63.6564C48.87 64.0511 47.5973 64.5021 47.5973 64.5021C47.5973 64.5021 34.3334 69.1819 30.3458 65.2351C27.9984 62.8952 29.2145 59.5686 28.2812 57.7926C26.4712 54.2686 23.8694 55.058 21.6917 50.1245C19.6272 45.4729 23.3603 39.3271 24.3219 37.8048C25.2834 36.2825 25.538 36.0851 25.538 36.0851C25.538 36.0851 25.849 35.6059 26.2167 35.916C26.5844 36.2261 26.443 45.2755 31.2225 51.5059C36.002 57.7362 40.6401 60.8936 44.2601 62.0495C47.9084 63.1771 48.1347 63.1771 48.1347 63.1771Z" fill="#379BA0"/>
</g>
<defs>
<clipPath id="clip0_32_301">
<rect width="362" height="106" fill="white"/>
</clipPath>
</defs>
</svg>
