<svg width="60" height="60" viewBox="0 0 60 60" fill="none" xmlns="http://www.w3.org/2000/svg">
<path d="M15.5625 2.44922C16.5586 2.44922 17.3672 3.25781 17.3672 4.24219V13.793C17.3672 14.7891 16.5586 15.5859 15.5743 15.5859C14.5782 15.5859 13.7813 14.7773 13.7813 13.793V4.24219C13.7696 3.25781 14.5782 2.44922 15.5625 2.44922Z" fill="url(#paint0_linear_52_131)"/>
<path d="M44.1914 2.44922C45.1875 2.44922 45.9961 3.25781 45.9961 4.24219V13.793C45.9961 14.7891 45.1875 15.5859 44.2031 15.5859C43.207 15.5859 42.4102 14.7773 42.4102 13.793V4.24219C42.3984 3.25781 43.207 2.44922 44.1914 2.44922Z" fill="url(#paint1_linear_52_131)"/>
<path d="M29.8828 2.44922C30.8789 2.44922 31.6875 3.25781 31.6875 4.24219V13.793C31.6875 14.7891 30.8789 15.5859 29.8945 15.5859C28.8984 15.5859 28.1016 14.7773 28.1016 13.793V4.24219C28.0898 3.25781 28.8984 2.44922 29.8828 2.44922Z" fill="url(#paint2_linear_52_131)"/>
<path d="M50.9531 57.9375H9.07031C5.27344 57.9375 2.19141 54.8555 2.19141 51.0586V13.6875C2.19141 9.89063 5.27344 6.79688 9.07031 6.79688H50.9531C54.75 6.79688 57.832 9.87891 57.832 13.6758V51.0352C57.832 54.8438 54.75 57.9375 50.9531 57.9375ZM9.07031 10.3125C7.21875 10.3125 5.70703 11.8242 5.70703 13.6758V51.0352C5.70703 52.8867 7.21875 54.3984 9.07031 54.3984H50.9531C52.8047 54.3984 54.3164 52.8867 54.3164 51.0352V13.6875C54.3164 11.8359 52.8047 10.3242 50.9531 10.3242H9.07031V10.3125Z" fill="url(#paint3_linear_52_131)"/>
<path d="M54.3164 20.918H5.70703V24.4336H54.3164V20.918Z" fill="url(#paint4_linear_52_131)"/>
<path d="M25.1719 44.5312C24.8555 44.5312 24.5391 44.4492 24.2578 44.2734C23.7305 43.957 23.4141 43.3828 23.4141 42.7734V31.371C23.4141 30.7617 23.7305 30.1874 24.2578 29.871C24.7734 29.5546 25.4297 29.5312 25.9688 29.8007L37.1133 35.4843C37.6992 35.789 38.0742 36.3867 38.0742 37.0429C38.0742 37.6992 37.7109 38.3085 37.125 38.6132L25.9805 44.3437C25.7227 44.4609 25.4531 44.5312 25.1719 44.5312ZM26.9297 34.2304V39.8906L32.4609 37.0546L26.9297 34.2304Z" fill="url(#paint5_linear_52_131)"/>
<defs>
<linearGradient id="paint0_linear_52_131" x1="15.5735" y1="2.45199" x2="15.5735" y2="15.5683" gradientUnits="userSpaceOnUse">
<stop stop-color="#09A3A7"/>
<stop offset="1" stop-color="#0EAEBE"/>
</linearGradient>
<linearGradient id="paint1_linear_52_131" x1="44.2023" y1="2.45199" x2="44.2023" y2="15.5683" gradientUnits="userSpaceOnUse">
<stop stop-color="#09A3A7"/>
<stop offset="1" stop-color="#0EAEBE"/>
</linearGradient>
<linearGradient id="paint2_linear_52_131" x1="29.8937" y1="2.45199" x2="29.8937" y2="15.5683" gradientUnits="userSpaceOnUse">
<stop stop-color="#09A3A7"/>
<stop offset="1" stop-color="#0EAEBE"/>
</linearGradient>
<linearGradient id="paint3_linear_52_131" x1="30.0004" y1="6.80766" x2="30.0004" y2="57.8689" gradientUnits="userSpaceOnUse">
<stop stop-color="#09A3A7"/>
<stop offset="1" stop-color="#0EAEBE"/>
</linearGradient>
<linearGradient id="paint4_linear_52_131" x1="30.0018" y1="20.9187" x2="30.0018" y2="24.4289" gradientUnits="userSpaceOnUse">
<stop stop-color="#09A3A7"/>
<stop offset="1" stop-color="#0EAEBE"/>
</linearGradient>
<linearGradient id="paint5_linear_52_131" x1="30.7412" y1="29.6179" x2="30.7412" y2="44.5112" gradientUnits="userSpaceOnUse">
<stop stop-color="#09A3A7"/>
<stop offset="1" stop-color="#0EAEBE"/>
</linearGradient>
</defs>
</svg>
