<svg width="126" height="36" viewBox="0 0 126 36" fill="none" xmlns="http://www.w3.org/2000/svg">
<path d="M39.84 26.13C39.63 26.13 39.48 26.07 39.33 25.95C39.21 25.83 39.15 25.65 39.15 25.47V7.5C39.15 7.29 39.21 7.14 39.33 6.99C39.45 6.87 39.63 6.81 39.84 6.81H42.03C42.3 6.81 42.48 6.87 42.6 7.02C42.72 7.17 42.81 7.26 42.84 7.35L48.18 17.28L53.55 7.35C53.58 7.29 53.67 7.17 53.79 7.02C53.91 6.87 54.12 6.81 54.36 6.81H56.52C56.73 6.81 56.88 6.87 57.03 6.99C57.15 7.11 57.21 7.29 57.21 7.5V25.47C57.21 25.65 57.15 25.8 57.03 25.95C56.91 26.07 56.73 26.13 56.52 26.13H54.21C54 26.13 53.85 26.07 53.73 25.95C53.61 25.83 53.55 25.65 53.55 25.47V13.53L49.68 20.91C49.59 21.09 49.47 21.21 49.32 21.33C49.17 21.45 48.99 21.51 48.75 21.51H47.61C47.34 21.51 47.16 21.45 47.01 21.33C46.86 21.21 46.77 21.06 46.68 20.91L42.81 13.53V25.47C42.81 25.65 42.75 25.8 42.63 25.95C42.51 26.07 42.33 26.13 42.15 26.13H39.84ZM62.19 26.13C62.01 26.13 61.86 26.07 61.71 25.95C61.59 25.83 61.53 25.65 61.53 25.47V7.5C61.53 7.29 61.59 7.14 61.71 6.99C61.83 6.87 62.01 6.81 62.19 6.81H74.34C74.55 6.81 74.7 6.87 74.85 6.99C74.97 7.11 75.03 7.29 75.03 7.5V9.33C75.03 9.51 74.97 9.66 74.85 9.81C74.73 9.93 74.55 9.99 74.34 9.99H65.25V14.88H73.71C73.92 14.88 74.07 14.94 74.22 15.06C74.34 15.18 74.4 15.33 74.4 15.54V17.25C74.4 17.46 74.34 17.61 74.22 17.73C74.1 17.85 73.92 17.91 73.71 17.91H65.25V22.95H74.55C74.76 22.95 74.91 23.01 75.06 23.13C75.18 23.25 75.24 23.43 75.24 23.64V25.47C75.24 25.65 75.18 25.8 75.06 25.95C74.94 26.07 74.76 26.13 74.55 26.13H62.19ZM79.35 26.13C79.17 26.13 79.02 26.07 78.87 25.95C78.75 25.83 78.69 25.65 78.69 25.47V7.5C78.69 7.29 78.75 7.14 78.87 6.99C78.99 6.87 79.17 6.81 79.35 6.81H86.07C87.93 6.81 89.46 7.11 90.66 7.68C91.86 8.25 92.79 9.09 93.39 10.23C94.02 11.34 94.32 12.72 94.35 14.34C94.38 15.15 94.41 15.87 94.41 16.5C94.41 17.13 94.38 17.82 94.35 18.63C94.32 20.34 93.99 21.75 93.42 22.86C92.82 23.97 91.95 24.81 90.75 25.35C89.55 25.89 88.05 26.16 86.22 26.16H79.35V26.13ZM82.53 22.95H86.1C87.12 22.95 87.96 22.8 88.62 22.5C89.25 22.2 89.73 21.72 90.03 21.09C90.33 20.43 90.48 19.59 90.51 18.51C90.54 17.97 90.54 17.49 90.54 17.07C90.54 16.65 90.54 16.23 90.54 15.84C90.54 15.42 90.51 14.94 90.51 14.43C90.48 12.93 90.09 11.82 89.37 11.1C88.65 10.38 87.51 10.02 85.95 10.02H82.53V22.95ZM98.76 26.13C98.58 26.13 98.43 26.07 98.28 25.95C98.16 25.83 98.1 25.65 98.1 25.47V7.47C98.1 7.29 98.16 7.14 98.28 6.99C98.4 6.87 98.58 6.81 98.76 6.81H101.34C101.55 6.81 101.7 6.87 101.82 6.99C101.94 7.11 102 7.29 102 7.47V25.47C102 25.65 101.94 25.8 101.82 25.95C101.7 26.07 101.55 26.13 101.34 26.13H98.76ZM105.15 26.13C105 26.13 104.88 26.07 104.76 25.95C104.64 25.83 104.58 25.71 104.58 25.53C104.58 25.47 104.61 25.38 104.64 25.29L111.3 7.5C111.36 7.32 111.45 7.17 111.63 7.02C111.78 6.87 111.99 6.81 112.29 6.81H115.29C115.56 6.81 115.77 6.87 115.92 7.02C116.07 7.17 116.19 7.32 116.25 7.5L122.91 25.29C122.94 25.38 122.94 25.47 122.94 25.53C122.94 25.71 122.88 25.83 122.76 25.95C122.64 26.07 122.52 26.13 122.37 26.13H119.97C119.7 26.13 119.52 26.07 119.4 25.95C119.28 25.83 119.19 25.71 119.16 25.62L117.87 22.26H109.68L108.39 25.62C108.36 25.74 108.27 25.86 108.15 25.95C108.03 26.07 107.85 26.13 107.58 26.13H105.15ZM110.64 19.08H116.91L113.76 10.56L110.64 19.08Z" fill="url(#paint0_linear_4_6)"/>
<path d="M3.65999 26.13C3.47999 26.13 3.33 26.07 3.18 25.95C3.06 25.83 3 25.65 3 25.47V7.50001C3 7.29001 3.06 7.14001 3.18 6.99001C3.3 6.87001 3.47999 6.81001 3.65999 6.81001H11.07C12.51 6.81001 13.77 7.05001 14.82 7.50001C15.9 7.95001 16.71 8.64001 17.31 9.54001C17.91 10.44 18.18 11.58 18.18 12.96C18.18 14.34 17.88 15.48 17.31 16.38C16.71 17.28 15.9 17.94 14.82 18.39C13.74 18.84 12.51 19.05 11.07 19.05H6.95999V25.47C6.95999 25.65 6.9 25.8 6.78 25.95C6.66 26.07 6.51 26.13 6.3 26.13H3.65999ZM6.87 15.96H10.92C12 15.96 12.81 15.72 13.38 15.21C13.95 14.7 14.25 13.95 14.25 12.96C14.25 12.03 13.98 11.31 13.44 10.74C12.9 10.17 12.06 9.90001 10.92 9.90001H6.9V15.96H6.87ZM19.29 26.13C19.11 26.13 18.99 26.07 18.87 25.95C18.75 25.83 18.69 25.71 18.69 25.53C18.69 25.47 18.69 25.41 18.72 25.35C18.75 25.29 18.75 25.23 18.78 25.17L24.96 16.23L15.3 2.13001C15.24 2.01001 15.21 1.92001 15.21 1.80001C15.21 1.62001 15.27 1.50001 15.39 1.38001C15.51 1.26001 15.63 1.20001 15.81 1.20001H18.63C18.84 1.20001 19.02 1.26001 19.14 1.38001C19.26 1.50001 19.38 1.62001 19.47 1.74001L27.39 13.23L31.47 7.26001C31.53 7.14001 31.65 7.02001 31.8 6.90001C31.95 6.78001 32.13 6.72001 32.34 6.72001H35.01C35.19 6.72001 35.31 6.78001 35.43 6.90001C35.55 7.02001 35.61 7.14001 35.61 7.32001C35.61 7.44001 35.58 7.53001 35.49 7.65001L29.73 16.2L40.26 33.45C40.29 33.51 40.32 33.57 40.35 33.63C40.38 33.69 40.38 33.75 40.38 33.81C40.38 33.99 40.32 34.11 40.2 34.23C40.08 34.35 39.96 34.41 39.81 34.41H36.87C36.66 34.41 36.48 34.35 36.36 34.23C36.24 34.11 36.12 34.02 36.06 33.9L27.3 19.38L22.98 25.62C22.92 25.74 22.8 25.83 22.68 25.95C22.56 26.07 22.38 26.13 22.14 26.13H19.29Z" fill="url(#paint1_linear_4_6)"/>
<path d="M45.51 34.5C45.03 34.5 44.61 34.44 44.31 34.29C43.98 34.14 43.74 33.96 43.56 33.72C43.38 33.48 43.29 33.24 43.29 33C43.29 32.94 43.32 32.91 43.35 32.88C43.38 32.85 43.41 32.82 43.47 32.82H44.16C44.22 32.82 44.28 32.82 44.31 32.85C44.34 32.88 44.37 32.91 44.4 32.97C44.43 33.06 44.49 33.18 44.58 33.27C44.67 33.36 44.79 33.45 44.94 33.51C45.09 33.57 45.3 33.6 45.51 33.6C45.87 33.6 46.17 33.54 46.35 33.42C46.53 33.3 46.62 33.12 46.62 32.91C46.62 32.76 46.56 32.64 46.47 32.55C46.38 32.46 46.23 32.37 46.02 32.31C45.81 32.22 45.54 32.16 45.21 32.07C44.82 31.98 44.49 31.86 44.22 31.74C43.95 31.62 43.77 31.44 43.62 31.23C43.5 31.02 43.41 30.78 43.41 30.45C43.41 30.15 43.5 29.88 43.65 29.64C43.8 29.4 44.04 29.22 44.34 29.1C44.64 28.95 45 28.89 45.42 28.89C45.75 28.89 46.05 28.95 46.32 29.04C46.59 29.13 46.8 29.25 46.98 29.4C47.16 29.55 47.28 29.7 47.37 29.88C47.46 30.06 47.52 30.21 47.52 30.39C47.52 30.42 47.52 30.48 47.49 30.51C47.46 30.54 47.43 30.57 47.37 30.57H46.65C46.62 30.57 46.56 30.57 46.53 30.54C46.5 30.51 46.44 30.48 46.44 30.42C46.41 30.27 46.32 30.12 46.14 30C45.96 29.88 45.75 29.82 45.48 29.82C45.21 29.82 44.97 29.88 44.79 29.97C44.61 30.06 44.52 30.24 44.52 30.45C44.52 30.6 44.55 30.72 44.64 30.81C44.73 30.9 44.85 30.99 45.06 31.05C45.24 31.11 45.51 31.2 45.81 31.29C46.26 31.38 46.62 31.5 46.89 31.62C47.16 31.74 47.37 31.92 47.52 32.13C47.64 32.34 47.7 32.58 47.7 32.88C47.7 33.21 47.61 33.51 47.43 33.75C47.25 33.99 46.98 34.17 46.65 34.32C46.35 34.44 45.96 34.5 45.51 34.5ZM52.2 34.5C51.75 34.5 51.33 34.41 51 34.26C50.67 34.11 50.4 33.87 50.22 33.54C50.04 33.21 49.92 32.82 49.92 32.34C49.92 32.13 49.92 31.89 49.92 31.68C49.92 31.47 49.92 31.23 49.92 31.02C49.95 30.54 50.04 30.15 50.22 29.82C50.4 29.49 50.67 29.25 51 29.1C51.33 28.95 51.72 28.86 52.17 28.86C52.62 28.86 53.01 28.95 53.34 29.1C53.67 29.25 53.94 29.49 54.15 29.82C54.33 30.15 54.45 30.54 54.45 31.02C54.45 31.26 54.48 31.47 54.48 31.68C54.48 31.89 54.48 32.13 54.45 32.34C54.42 32.82 54.33 33.21 54.15 33.54C53.97 33.87 53.7 34.11 53.37 34.26C53.07 34.44 52.65 34.5 52.2 34.5ZM52.2 33.6C52.53 33.6 52.8 33.51 53.04 33.3C53.25 33.09 53.37 32.76 53.37 32.31C53.37 32.07 53.4 31.86 53.4 31.68C53.4 31.47 53.4 31.29 53.37 31.05C53.37 30.75 53.31 30.51 53.19 30.3C53.1 30.12 52.95 29.97 52.77 29.88C52.59 29.79 52.41 29.76 52.17 29.76C51.96 29.76 51.75 29.79 51.57 29.88C51.39 29.97 51.27 30.09 51.15 30.3C51.06 30.48 51 30.75 50.97 31.05C50.97 31.26 50.97 31.47 50.97 31.68C50.97 31.86 50.97 32.1 50.97 32.31C51 32.76 51.09 33.09 51.3 33.3C51.6 33.51 51.87 33.6 52.2 33.6ZM57.18 34.44C57.12 34.44 57.09 34.41 57.06 34.38C57.03 34.35 57 34.29 57 34.26V29.16C57 29.1 57.03 29.07 57.06 29.04C57.09 29.01 57.15 28.98 57.18 28.98H57.9C57.96 28.98 57.99 29.01 58.02 29.04C58.05 29.07 58.08 29.13 58.08 29.16V33.51H60.54C60.6 33.51 60.63 33.54 60.69 33.57C60.72 33.6 60.75 33.66 60.75 33.72V34.26C60.75 34.32 60.72 34.35 60.69 34.38C60.66 34.41 60.6 34.44 60.54 34.44H57.18ZM65.07 34.5C64.62 34.5 64.23 34.41 63.9 34.26C63.57 34.11 63.3 33.87 63.12 33.54C62.94 33.21 62.85 32.82 62.85 32.31V29.13C62.85 29.07 62.88 29.04 62.91 28.98C62.94 28.95 63 28.92 63.03 28.92H63.75C63.81 28.92 63.84 28.95 63.9 28.98C63.93 29.01 63.96 29.07 63.96 29.13V32.31C63.96 32.73 64.05 33.06 64.26 33.27C64.47 33.48 64.74 33.57 65.1 33.57C65.46 33.57 65.73 33.48 65.94 33.27C66.15 33.06 66.24 32.76 66.24 32.31V29.13C66.24 29.07 66.27 29.04 66.3 28.98C66.33 28.95 66.39 28.92 66.45 28.92H67.14C67.2 28.92 67.23 28.95 67.29 28.98C67.32 29.01 67.35 29.07 67.35 29.13V32.31C67.35 32.82 67.26 33.21 67.08 33.54C66.9 33.87 66.66 34.11 66.33 34.26C65.91 34.44 65.52 34.5 65.07 34.5ZM71.34 34.44C71.2801 34.44 71.25 34.41 71.22 34.38C71.19 34.35 71.16 34.29 71.16 34.26V29.94H69.72C69.66 29.94 69.63 29.91 69.6 29.88C69.57 29.85 69.54 29.79 69.54 29.76V29.19C69.54 29.13 69.57 29.1 69.6 29.04C69.63 29.01 69.69 28.98 69.72 28.98H73.71C73.77 28.98 73.8 29.01 73.86 29.04C73.89 29.07 73.92 29.13 73.92 29.19V29.76C73.92 29.82 73.89 29.85 73.86 29.88C73.83 29.91 73.77 29.94 73.71 29.94H72.27V34.26C72.27 34.32 72.24 34.35 72.21 34.38C72.18 34.41 72.12 34.44 72.06 34.44H71.34ZM76.32 34.44C76.26 34.44 76.23 34.41 76.2 34.38C76.17 34.35 76.14 34.29 76.14 34.26V29.16C76.14 29.1 76.17 29.07 76.2 29.04C76.23 29.01 76.29 28.98 76.32 28.98H77.0401C77.1 28.98 77.1301 29.01 77.19 29.04C77.2201 29.07 77.25 29.13 77.25 29.16V34.26C77.25 34.32 77.2201 34.35 77.19 34.38C77.16 34.41 77.1 34.44 77.0401 34.44H76.32ZM82.05 34.5C81.6 34.5 81.18 34.41 80.85 34.26C80.52 34.11 80.25 33.87 80.07 33.54C79.89 33.21 79.77 32.82 79.77 32.34C79.77 32.13 79.77 31.89 79.77 31.68C79.77 31.47 79.77 31.23 79.77 31.02C79.8 30.54 79.89 30.15 80.07 29.82C80.25 29.49 80.52 29.25 80.85 29.1C81.18 28.95 81.57 28.86 82.02 28.86C82.47 28.86 82.8601 28.95 83.19 29.1C83.5201 29.25 83.79 29.49 84 29.82C84.18 30.15 84.3 30.54 84.3 31.02C84.3 31.26 84.33 31.47 84.33 31.68C84.33 31.89 84.33 32.13 84.3 32.34C84.27 32.82 84.18 33.21 84 33.54C83.82 33.87 83.55 34.11 83.22 34.26C82.92 34.44 82.5 34.5 82.05 34.5ZM82.05 33.6C82.38 33.6 82.6501 33.51 82.89 33.3C83.1 33.09 83.22 32.76 83.22 32.31C83.22 32.07 83.25 31.86 83.25 31.68C83.25 31.47 83.25 31.29 83.22 31.05C83.22 30.75 83.16 30.51 83.0401 30.3C82.9501 30.12 82.8 29.97 82.62 29.88C82.44 29.79 82.26 29.76 82.02 29.76C81.81 29.76 81.6 29.79 81.42 29.88C81.24 29.97 81.12 30.09 81 30.3C80.91 30.48 80.85 30.75 80.82 31.05C80.82 31.26 80.82 31.47 80.82 31.68C80.82 31.86 80.82 32.1 80.82 32.31C80.85 32.76 80.94 33.09 81.15 33.3C81.45 33.51 81.72 33.6 82.05 33.6ZM87.03 34.44C86.97 34.44 86.94 34.41 86.91 34.38C86.88 34.35 86.85 34.29 86.85 34.26V29.19C86.85 29.13 86.88 29.1 86.91 29.04C86.94 29.01 87 28.98 87.03 28.98H87.63C87.69 28.98 87.75 29.01 87.78 29.04C87.81 29.07 87.84 29.1 87.84 29.1L90.09 32.58V29.16C90.09 29.1 90.12 29.07 90.15 29.01C90.18 28.98 90.24 28.95 90.3 28.95H90.96C91.02 28.95 91.05 28.98 91.11 29.01C91.14 29.04 91.17 29.1 91.17 29.16V34.23C91.17 34.29 91.14 34.32 91.11 34.38C91.08 34.41 91.0201 34.44 90.9901 34.44H90.39C90.3301 34.44 90.2701 34.41 90.2401 34.38C90.21 34.35 90.18 34.32 90.18 34.32L87.93 30.9V34.26C87.93 34.32 87.9 34.35 87.87 34.38C87.84 34.41 87.78 34.44 87.72 34.44H87.03ZM95.76 34.5C95.28 34.5 94.86 34.44 94.56 34.29C94.26 34.14 93.99 33.96 93.81 33.72C93.63 33.48 93.5401 33.24 93.5401 33C93.5401 32.94 93.57 32.91 93.6 32.88C93.63 32.85 93.66 32.82 93.72 32.82H94.41C94.47 32.82 94.53 32.82 94.56 32.85C94.59 32.88 94.62 32.91 94.65 32.97C94.68 33.06 94.74 33.18 94.83 33.27C94.92 33.36 95.0401 33.45 95.1901 33.51C95.34 33.57 95.55 33.6 95.76 33.6C96.12 33.6 96.42 33.54 96.6 33.42C96.78 33.3 96.87 33.12 96.87 32.91C96.87 32.76 96.81 32.64 96.72 32.55C96.63 32.46 96.48 32.37 96.27 32.31C96.06 32.22 95.79 32.16 95.46 32.07C95.07 31.98 94.74 31.86 94.47 31.74C94.2 31.62 94.02 31.44 93.87 31.23C93.75 31.02 93.66 30.78 93.66 30.45C93.66 30.15 93.75 29.88 93.9 29.64C94.05 29.4 94.2901 29.22 94.59 29.1C94.89 28.95 95.25 28.89 95.67 28.89C96 28.89 96.3 28.95 96.57 29.04C96.84 29.13 97.05 29.25 97.23 29.4C97.41 29.55 97.53 29.7 97.62 29.88C97.71 30.06 97.77 30.21 97.77 30.39C97.77 30.42 97.7701 30.48 97.7401 30.51C97.71 30.54 97.68 30.57 97.62 30.57H96.9C96.87 30.57 96.81 30.57 96.78 30.54C96.75 30.51 96.6901 30.48 96.6901 30.42C96.66 30.27 96.57 30.12 96.39 30C96.21 29.88 96 29.82 95.73 29.82C95.46 29.82 95.2201 29.88 95.0401 29.97C94.8601 30.06 94.77 30.24 94.77 30.45C94.77 30.6 94.8 30.72 94.89 30.81C94.98 30.9 95.1 30.99 95.31 31.05C95.49 31.11 95.76 31.2 96.06 31.29C96.51 31.38 96.87 31.5 97.14 31.62C97.41 31.74 97.62 31.92 97.77 32.13C97.89 32.34 97.98 32.58 97.98 32.88C97.98 33.21 97.89 33.51 97.71 33.75C97.53 33.99 97.26 34.17 96.93 34.32C96.6 34.47 96.18 34.5 95.76 34.5ZM100.38 34.44C100.32 34.44 100.29 34.41 100.26 34.38C100.23 34.35 100.2 34.29 100.2 34.26V33.48C100.2 33.42 100.23 33.39 100.26 33.33C100.29 33.3 100.35 33.27 100.38 33.27H101.16C101.22 33.27 101.25 33.3 101.28 33.33C101.31 33.36 101.34 33.42 101.34 33.48V34.26C101.34 34.32 101.31 34.35 101.28 34.38C101.25 34.41 101.19 34.44 101.16 34.44H100.38ZM105.93 34.5C105.45 34.5 105.03 34.41 104.7 34.26C104.37 34.08 104.1 33.84 103.92 33.54C103.74 33.24 103.65 32.85 103.62 32.4C103.62 32.19 103.62 31.95 103.62 31.71C103.62 31.47 103.62 31.23 103.62 31.02C103.65 30.57 103.74 30.21 103.92 29.88C104.1 29.55 104.37 29.31 104.7 29.16C105.03 28.98 105.45 28.92 105.93 28.92C106.29 28.92 106.59 28.98 106.89 29.07C107.16 29.16 107.4 29.28 107.61 29.46C107.82 29.61 107.97 29.82 108.06 30.03C108.18 30.24 108.24 30.48 108.24 30.75C108.24 30.81 108.24 30.84 108.21 30.87C108.18 30.9 108.15 30.93 108.09 30.93H107.34C107.28 30.93 107.25 30.93 107.19 30.9C107.16 30.87 107.13 30.81 107.1 30.75C107.01 30.42 106.86 30.18 106.68 30.06C106.5 29.94 106.23 29.88 105.93 29.88C105.57 29.88 105.3 29.97 105.09 30.18C104.88 30.36 104.76 30.69 104.76 31.14C104.73 31.56 104.73 32.01 104.76 32.46C104.79 32.91 104.88 33.24 105.09 33.42C105.3 33.6 105.57 33.72 105.93 33.72C106.23 33.72 106.47 33.66 106.68 33.54C106.89 33.42 107.04 33.18 107.1 32.85C107.13 32.79 107.13 32.73 107.19 32.7C107.22 32.67 107.28 32.67 107.34 32.67H108.09C108.15 32.67 108.18 32.7 108.21 32.73C108.24 32.76 108.27 32.79 108.24 32.85C108.24 33.09 108.18 33.33 108.06 33.57C107.94 33.78 107.79 33.99 107.61 34.14C107.4 34.29 107.16 34.44 106.89 34.53C106.59 34.47 106.29 34.5 105.93 34.5ZM112.74 34.5C112.29 34.5 111.87 34.41 111.54 34.26C111.21 34.11 110.94 33.87 110.76 33.54C110.58 33.21 110.46 32.82 110.46 32.34C110.46 32.13 110.46 31.89 110.46 31.68C110.46 31.47 110.46 31.23 110.46 31.02C110.49 30.54 110.58 30.15 110.76 29.82C110.94 29.49 111.21 29.25 111.54 29.1C111.87 28.95 112.26 28.86 112.71 28.86C113.16 28.86 113.55 28.95 113.88 29.1C114.21 29.25 114.48 29.49 114.69 29.82C114.87 30.15 114.99 30.54 114.99 31.02C114.99 31.26 115.02 31.47 115.02 31.68C115.02 31.89 115.02 32.13 114.99 32.34C114.96 32.82 114.87 33.21 114.69 33.54C114.51 33.87 114.24 34.11 113.91 34.26C113.61 34.44 113.19 34.5 112.74 34.5ZM112.74 33.6C113.07 33.6 113.34 33.51 113.58 33.3C113.79 33.09 113.91 32.76 113.91 32.31C113.91 32.07 113.94 31.86 113.94 31.68C113.94 31.47 113.94 31.29 113.91 31.05C113.91 30.75 113.85 30.51 113.73 30.3C113.64 30.12 113.49 29.97 113.31 29.88C113.13 29.79 112.95 29.76 112.71 29.76C112.5 29.76 112.29 29.79 112.11 29.88C111.93 29.97 111.81 30.09 111.69 30.3C111.6 30.48 111.54 30.75 111.51 31.05C111.51 31.26 111.51 31.47 111.51 31.68C111.51 31.86 111.51 32.1 111.51 32.31C111.54 32.76 111.63 33.09 111.84 33.3C112.14 33.51 112.41 33.6 112.74 33.6ZM117.75 34.44C117.69 34.44 117.66 34.41 117.6 34.38C117.57 34.35 117.54 34.29 117.54 34.26V29.19C117.54 29.13 117.57 29.1 117.6 29.04C117.63 29.01 117.69 28.98 117.75 28.98H118.38C118.44 28.98 118.5 29.01 118.53 29.04C118.56 29.07 118.59 29.1 118.59 29.13L120.09 31.95L121.62 29.13C121.62 29.1 121.65 29.07 121.68 29.04C121.71 29.01 121.77 28.98 121.83 28.98H122.43C122.49 28.98 122.52 29.01 122.58 29.04C122.61 29.07 122.64 29.13 122.64 29.19V34.26C122.64 34.32 122.61 34.35 122.58 34.38C122.55 34.41 122.49 34.44 122.43 34.44H121.77C121.71 34.44 121.68 34.41 121.62 34.38C121.59 34.35 121.56 34.29 121.56 34.26V30.87L120.48 32.94C120.45 33 120.42 33.03 120.39 33.06C120.36 33.09 120.3 33.12 120.24 33.12H119.91C119.85 33.12 119.79 33.09 119.73 33.06C119.7 33.03 119.67 33 119.64 32.94L118.56 30.87V34.26C118.56 34.32 118.53 34.35 118.5 34.38C118.47 34.41 118.41 34.44 118.38 34.44H117.75Z" fill="#309CB8"/>
<defs>
<linearGradient id="paint0_linear_4_6" x1="81.028" y1="6.81408" x2="81.028" y2="26.134" gradientUnits="userSpaceOnUse">
<stop stop-color="#09A3A7"/>
<stop offset="1" stop-color="#0EAEBE"/>
</linearGradient>
<linearGradient id="paint1_linear_4_6" x1="21.6732" y1="1.2823" x2="21.6732" y2="34.4308" gradientUnits="userSpaceOnUse">
<stop stop-color="#D6D6D8"/>
<stop offset="1" stop-color="#8C8D91"/>
</linearGradient>
</defs>
</svg>
