<svg width="60" height="60" viewBox="0 0 60 60" fill="none" xmlns="http://www.w3.org/2000/svg">
<path d="M34.4858 13.668C33.0321 13.2695 31.5228 13.0675 30 13.0675C20.6633 13.0675 13.0674 20.6634 13.0674 30C13.0674 39.3367 20.6633 46.9326 30 46.9326C39.3366 46.9326 46.9325 39.3367 46.9325 30C46.9325 28.4772 46.7305 26.9679 46.332 25.5142C46.0583 24.5155 46.646 23.4841 47.6446 23.2103C48.6427 22.9367 49.6748 23.5243 49.9485 24.5229C50.4355 26.2996 50.6825 28.1424 50.6825 30C50.6825 41.4044 41.4043 50.6825 30 50.6825C18.5956 50.6825 9.31745 41.4044 9.31745 30C9.31745 18.5957 18.5956 9.31752 30 9.31752C31.8577 9.31752 33.7004 9.56443 35.4771 10.0515C36.3099 10.2797 36.857 11.0351 36.8568 11.859C36.8568 12.0229 36.835 12.1895 36.7897 12.3554C36.5161 13.354 35.4847 13.9421 34.4858 13.668ZM56.4395 20.2079C55.4466 20.5019 54.8799 21.545 55.1739 22.538C55.8879 24.9497 56.2499 27.4602 56.2499 30C56.2499 44.4743 44.4743 56.25 30 56.25C15.5257 56.25 3.75 44.4743 3.75 30C3.75 15.5258 15.5257 3.75006 30 3.75006C32.5399 3.75006 35.0504 4.11205 37.4616 4.82596C38.4547 5.1201 39.4978 4.55315 39.7918 3.56034C39.8443 3.3828 39.8694 3.20385 39.8694 3.02772C39.8696 2.21854 39.3417 1.4717 38.5262 1.23018C35.769 0.413854 32.9005 6.56841e-05 30 6.56841e-05C21.9867 6.56841e-05 14.453 3.12065 8.78671 8.78677C3.12058 14.4531 0 21.9868 0 30C0 38.0133 3.12058 45.547 8.78671 51.2133C14.4528 56.8795 21.9867 60 30 60C38.0132 60 45.5469 56.8794 51.2132 51.2133C56.8794 45.547 59.9999 38.0133 59.9999 30C59.9999 27.0998 59.586 24.231 58.7697 21.4735C58.4758 20.4806 57.4324 19.9143 56.4395 20.2079ZM30 22.5C30.2757 22.5 30.5541 22.5153 30.8277 22.5453C31.8575 22.6586 32.7832 21.9153 32.8959 20.886C33.0089 19.8566 32.266 18.9306 31.2366 18.8178C30.8277 18.7728 30.4118 18.75 30 18.75C23.7967 18.75 18.75 23.7967 18.75 30C18.75 36.2033 23.7967 41.25 30 41.25C36.2033 41.25 41.25 36.2033 41.25 30C41.25 28.9644 40.4105 28.125 39.375 28.125C38.3394 28.125 37.5 28.9644 37.5 30C37.5 34.1356 34.1355 37.5 30 37.5C25.8644 37.5 22.5 34.1356 22.5 30C22.5 25.8645 25.8644 22.5 30 22.5ZM39.5735 17.7752L40.5075 8.40638C40.5504 7.97537 40.7411 7.57271 41.0473 7.2665L47.7649 0.549206C48.2824 0.0318234 49.0532 -0.137278 49.7398 0.115964C50.4262 0.369206 50.9027 0.998736 50.96 1.72823L51.4926 8.50752L58.2718 9.04002C59.0013 9.09732 59.6308 9.57381 59.884 10.2602C60.1373 10.9467 59.9682 11.7177 59.4508 12.2351L52.7334 18.9524C52.4273 19.2586 52.0245 19.4494 51.5936 19.4923L42.2251 20.4268L31.3258 31.3259C30.9596 31.692 30.4799 31.875 30 31.875C29.52 31.875 29.0403 31.692 28.6742 31.3258C27.9419 30.5936 27.9419 29.4064 28.6742 28.6742L39.5735 17.7752ZM43.4657 16.5345L50.5551 15.8274L53.9225 12.46L49.602 12.1206C48.6823 12.0483 47.9519 11.3178 47.8796 10.3982L47.5402 6.0774L44.1726 9.4449L43.4657 16.5345Z" fill="url(#paint0_linear_49_71)"/>
<defs>
<linearGradient id="paint0_linear_49_71" x1="29.9878" y1="0.0126512" x2="29.9878" y2="59.9195" gradientUnits="userSpaceOnUse">
<stop stop-color="#09A3A7"/>
<stop offset="1" stop-color="#0EAEBE"/>
</linearGradient>
</defs>
</svg>
