<svg width="24" height="24" viewBox="0 0 24 24" fill="none" xmlns="http://www.w3.org/2000/svg">
<path d="M24 3.75V9.89062C24 10.4084 23.5803 10.8281 23.0625 10.8281C22.5447 10.8281 22.125 10.4084 22.125 9.89062V3.75C22.125 2.71619 21.2838 1.875 20.25 1.875H3.75C2.71619 1.875 1.875 2.71619 1.875 3.75V18.3281C1.875 19.3619 2.71619 20.2031 3.75 20.2031H10.1719C10.6897 20.2031 11.1094 20.6228 11.1094 21.1406C11.1094 21.6584 10.6897 22.0781 10.1719 22.0781H3.75C1.68219 22.0781 0 20.3959 0 18.3281V3.75C0 1.68219 1.68219 0 3.75 0H20.25C22.3178 0 24 1.68219 24 3.75ZM4.54688 16.6875C4.02905 16.6875 3.60938 17.1072 3.60938 17.625C3.60938 18.1428 4.02905 18.5625 4.54688 18.5625C5.0647 18.5625 5.48438 18.1428 5.48438 17.625C5.48438 17.1072 5.0647 16.6875 4.54688 16.6875ZM8.29688 16.6875C7.77905 16.6875 7.35938 17.1072 7.35938 17.625C7.35938 18.1428 7.77905 18.5625 8.29688 18.5625C8.8147 18.5625 9.23438 18.1428 9.23438 17.625C9.23438 17.1072 8.8147 16.6875 8.29688 16.6875ZM5.48438 4.92188C5.48438 4.40405 5.0647 3.98438 4.54688 3.98438C4.02905 3.98438 3.60938 4.40405 3.60938 4.92188C3.60938 5.4397 4.02905 5.85938 4.54688 5.85938C5.0647 5.85938 5.48438 5.4397 5.48438 4.92188ZM9.23438 4.92188C9.23438 4.40405 8.8147 3.98438 8.29688 3.98438C7.77905 3.98438 7.35938 4.40405 7.35938 4.92188C7.35938 5.4397 7.77905 5.85938 8.29688 5.85938C8.8147 5.85938 9.23438 5.4397 9.23438 4.92188ZM12.9844 4.92188C12.9844 4.40405 12.5647 3.98438 12.0469 3.98438C11.5291 3.98438 11.1094 4.40405 11.1094 4.92188C11.1094 5.4397 11.5291 5.85938 12.0469 5.85938C12.5647 5.85938 12.9844 5.4397 12.9844 4.92188ZM15.7969 5.85938C16.3147 5.85938 16.7344 5.4397 16.7344 4.92188C16.7344 4.40405 16.3147 3.98438 15.7969 3.98438C15.2791 3.98438 14.8594 4.40405 14.8594 4.92188C14.8594 5.4397 15.2791 5.85938 15.7969 5.85938ZM20.4844 4.92188C20.4844 4.40405 20.0647 3.98438 19.5469 3.98438C19.0291 3.98438 18.6094 4.40405 18.6094 4.92188C18.6094 5.4397 19.0291 5.85938 19.5469 5.85938C20.0647 5.85938 20.4844 5.4397 20.4844 4.92188ZM24 14.9531C24 16.504 22.7384 17.7656 21.1875 17.7656C19.9653 17.7656 18.9232 16.9818 18.5363 15.8906H16.6406V17.7863C17.7318 18.1732 18.5156 19.2153 18.5156 20.4375C18.5156 21.9884 17.254 23.25 15.7031 23.25C14.1522 23.25 12.8906 21.9884 12.8906 20.4375C12.8906 19.2153 13.6745 18.1732 14.7656 17.7863V15.8906H10.9219C10.4041 15.8906 9.98438 15.4709 9.98438 14.9531C9.98438 14.4353 10.4041 14.0156 10.9219 14.0156H14.7656V10.1719C14.7656 9.65405 15.1853 9.23438 15.7031 9.23438C16.2209 9.23438 16.6406 9.65405 16.6406 10.1719V14.0156H18.5363C18.9232 12.9245 19.9653 12.1406 21.1875 12.1406C22.7384 12.1406 24 13.4022 24 14.9531ZM16.6406 20.4375C16.6406 19.9206 16.22 19.5 15.7031 19.5C15.1862 19.5 14.7656 19.9206 14.7656 20.4375C14.7656 20.9544 15.1862 21.375 15.7031 21.375C16.22 21.375 16.6406 20.9544 16.6406 20.4375ZM22.125 14.9531C22.125 14.4362 21.7044 14.0156 21.1875 14.0156C20.6706 14.0156 20.25 14.4362 20.25 14.9531C20.25 15.47 20.6706 15.8906 21.1875 15.8906C21.7044 15.8906 22.125 15.47 22.125 14.9531Z" fill="white"/>
</svg>
