<svg width="24" height="24" viewBox="0 0 24 24" fill="none" xmlns="http://www.w3.org/2000/svg">
<g clip-path="url(#clip0_20_146)">
<path d="M21.1875 18.2812H2.8125C1.2625 18.2812 0 17.0187 0 15.4688V2.8125C0 1.2625 1.2625 0 2.8125 0H21.1875C22.7375 0 24 1.2625 24 2.8125V15.4688C24 17.0187 22.7375 18.2812 21.1875 18.2812ZM2.8125 1.875C2.29375 1.875 1.875 2.29375 1.875 2.8125V15.4688C1.875 15.9875 2.29375 16.4062 2.8125 16.4062H21.1875C21.7062 16.4062 22.125 15.9875 22.125 15.4688V2.8125C22.125 2.29375 21.7062 1.875 21.1875 1.875H2.8125Z" fill="white"/>
<path d="M24 23H0V21H24V23Z" fill="white"/>
<path d="M4.45624 22.125C4.45624 21.0875 5.29374 20.25 6.33124 20.25C7.36874 20.25 8.20624 21.0875 8.20624 22.125C8.20624 23.1625 7.36874 24 6.33124 24C5.29374 24 4.45624 23.1625 4.45624 22.125Z" fill="white"/>
<path d="M8.25 14.1375V4.2812L16.7812 9.21245L8.25 14.1375ZM10.125 7.5312V10.8937L13.0312 9.21245L10.125 7.5312Z" fill="white"/>
</g>
<defs>
<clipPath id="clip0_20_146">
<rect width="24" height="24" fill="white"/>
</clipPath>
</defs>
</svg>
