<svg width="772" height="498" viewBox="0 0 772 498" fill="none" xmlns="http://www.w3.org/2000/svg">
<g opacity="0.2">
<mask id="mask0_42_57" style="mask-type:alpha" maskUnits="userSpaceOnUse" x="92" y="44" width="884" height="598">
<path d="M594.587 44.8233C612.121 44.8161 629.85 45.3785 647.752 46.5176C748.445 52.9199 813.095 84.7441 845.381 143.8C873.362 194.968 872.915 258.645 872.519 314.817C872.252 352.315 872.007 387.73 880.507 413.454C908.798 499.078 939.967 518.134 958.59 529.525C969.376 536.122 976.499 540.477 975.835 553.923C975.187 567.096 927.018 583.916 824.242 606.858C779.793 616.779 745.272 608.213 717.536 601.328C703.643 597.882 691.617 594.897 681.076 594.933V594.032V594.933C652.049 595.019 644.119 598.192 626.743 605.149C612.258 610.946 590.362 619.713 543.462 631.501C502.244 641.862 437.882 644.053 375.481 637.211C339.972 633.318 306.266 626.764 275.286 617.738C240.606 607.629 210.166 594.609 184.802 579.042C137.823 550.203 108.912 513.188 98.8828 469.028C89.0054 425.524 90.2527 381.017 102.603 336.742C114.867 292.762 137.448 251.255 169.719 213.375C216.691 158.227 282.431 113.756 359.828 84.773C401.09 69.3223 445.74 58.1975 492.539 51.7087C525.423 47.1305 559.591 44.8377 594.587 44.8233ZM783.867 609.554C796.231 609.547 809.526 608.293 823.852 605.099C870.594 594.666 905.388 585.654 930.226 577.55C966.052 565.863 973.824 558.199 974.04 553.83C974.653 541.45 968.611 537.759 957.652 531.054C938.82 519.54 907.299 500.261 878.798 414.017C870.204 388.018 870.457 352.452 870.723 314.802C871.12 258.847 871.567 195.422 843.809 144.658C811.841 86.1861 747.673 54.6719 647.644 48.3129C594.133 44.9098 542.035 46.6474 492.799 53.4679C446.13 59.9351 401.609 71.031 360.47 86.4384C283.346 115.321 217.859 159.611 171.089 214.528C138.991 252.214 116.532 293.49 104.341 337.218C92.0695 381.205 90.8294 425.416 100.642 468.624C110.563 512.294 139.193 548.927 185.747 577.507C210.974 592.993 241.27 605.95 275.79 616.007C306.67 625.005 340.275 631.537 375.675 635.423C437.874 642.244 501.999 640.074 543.022 629.756C589.807 617.99 611.631 609.259 626.072 603.477C643.664 596.433 651.696 593.224 681.069 593.13C681.119 593.13 681.17 593.13 681.22 593.13C691.97 593.123 704.018 596.115 717.969 599.576C736.556 604.19 758.214 609.562 783.867 609.554Z" fill="url(#paint0_linear_42_57)"/>
</mask>
<g mask="url(#mask0_42_57)">
<path d="M594.587 44.8233C612.121 44.8161 629.85 45.3785 647.752 46.5176C748.445 52.9199 813.095 84.7441 845.381 143.8C873.362 194.968 872.915 258.645 872.519 314.817C872.252 352.315 872.007 387.73 880.507 413.454C908.798 499.078 939.967 518.134 958.59 529.525C969.376 536.122 976.499 540.477 975.835 553.923C975.187 567.096 927.018 583.916 824.242 606.858C779.793 616.779 745.272 608.213 717.536 601.328C703.643 597.882 691.617 594.897 681.076 594.933V594.032V594.933C652.049 595.019 644.119 598.192 626.743 605.149C612.258 610.946 590.362 619.713 543.462 631.501C502.244 641.862 437.882 644.053 375.481 637.211C339.972 633.318 306.266 626.764 275.286 617.738C240.606 607.629 210.166 594.609 184.802 579.042C137.823 550.203 108.912 513.188 98.8828 469.028C89.0054 425.524 90.2527 381.017 102.603 336.742C114.867 292.762 137.448 251.255 169.719 213.375C216.691 158.227 282.431 113.756 359.828 84.773C401.09 69.3223 445.74 58.1975 492.539 51.7087C525.423 47.1305 559.591 44.8377 594.587 44.8233ZM783.867 609.554C796.231 609.547 809.526 608.293 823.852 605.099C870.594 594.666 905.388 585.654 930.226 577.55C966.052 565.863 973.824 558.199 974.04 553.83C974.653 541.45 968.611 537.759 957.652 531.054C938.82 519.54 907.299 500.261 878.798 414.017C870.204 388.018 870.457 352.452 870.723 314.802C871.12 258.847 871.567 195.422 843.809 144.658C811.841 86.1861 747.673 54.6719 647.644 48.3129C594.133 44.9098 542.035 46.6474 492.799 53.4679C446.13 59.9351 401.609 71.031 360.47 86.4384C283.346 115.321 217.859 159.611 171.089 214.528C138.991 252.214 116.532 293.49 104.341 337.218C92.0695 381.205 90.8294 425.416 100.642 468.624C110.563 512.294 139.193 548.927 185.747 577.507C210.974 592.993 241.27 605.95 275.79 616.007C306.67 625.005 340.275 631.537 375.675 635.423C437.874 642.244 501.999 640.074 543.022 629.756C589.807 617.99 611.631 609.259 626.072 603.477C643.664 596.433 651.696 593.224 681.069 593.13C681.119 593.13 681.17 593.13 681.22 593.13C691.97 593.123 704.018 596.115 717.969 599.576C736.556 604.19 758.214 609.562 783.867 609.554Z" fill="white"/>
</g>
<mask id="mask1_42_57" style="mask-type:alpha" maskUnits="userSpaceOnUse" x="127" y="77" width="817" height="547">
<path d="M585.669 77.5777C599.843 77.5705 614.169 77.9743 628.61 78.789C719.555 83.7277 778.712 111.305 809.462 163.101C836.174 208.097 837.659 264.824 838.964 314.875C839.88 349.741 840.738 382.669 850.017 406.685C878.539 483.585 908.445 502.301 926.311 513.484C937.112 520.239 944.242 524.709 943.781 537.759C943.644 545.135 930.399 554.017 904.422 564.154C881.048 573.268 848.286 583.023 809.663 592.359C769.339 602.28 737.868 595.532 712.576 590.117C700.348 587.5 689.793 585.236 680.254 585.229C650.016 585.157 642.518 587.55 620.283 594.616C605.344 599.367 584.883 605.87 547.175 615.027C508.552 624.421 448.502 626.39 390.463 620.16C357.269 616.599 325.812 610.593 296.973 602.302C264.615 593.001 236.273 581.004 212.733 566.627C170.267 540.701 143.908 507.492 134.398 467.932C124.925 428.119 125.631 387.326 136.504 346.677C147.304 306.288 167.571 268.133 196.742 233.274C238.89 182.899 298.105 142.113 367.99 115.321C405.25 101.039 445.618 90.6564 487.983 84.4703C519.374 79.8993 552.092 77.5922 585.669 77.5777ZM768.207 595.741C780.781 595.733 794.415 594.364 809.253 590.715C890.947 570.968 941.841 550.658 942.086 537.709C942.519 525.611 936.081 521.588 925.41 514.911C907.364 503.614 877.155 484.709 848.431 407.276C839.051 382.993 838.185 349.922 837.27 314.911C835.965 265.069 834.487 208.573 808.005 163.959C777.572 112.682 718.856 85.3788 628.517 80.4761C579.966 77.7364 532.763 79.6542 488.206 86.1574C445.964 92.329 405.719 102.675 368.574 116.915C298.963 143.605 239.986 184.218 198.018 234.37C169.006 269.042 148.854 306.973 138.119 347.124C127.326 387.492 126.619 428.011 136.028 467.55C145.429 506.656 171.529 539.511 213.606 565.2C244.702 584.183 300.65 608.841 390.636 618.488C448.494 624.695 508.329 622.742 546.772 613.39C584.421 604.241 604.847 597.752 619.764 593.008C641.581 586.072 649.757 583.484 680.254 583.534C689.973 583.542 700.608 585.82 712.929 588.459C728.711 591.847 746.931 595.748 768.207 595.741Z" fill="url(#paint1_linear_42_57)"/>
</mask>
<g mask="url(#mask1_42_57)">
<path d="M585.669 77.5777C599.843 77.5705 614.169 77.9743 628.61 78.789C719.555 83.7277 778.712 111.305 809.462 163.101C836.174 208.097 837.659 264.824 838.964 314.875C839.88 349.741 840.738 382.669 850.017 406.685C878.539 483.585 908.445 502.301 926.311 513.484C937.112 520.239 944.242 524.709 943.781 537.759C943.644 545.135 930.399 554.017 904.422 564.154C881.048 573.268 848.286 583.023 809.663 592.359C769.339 602.28 737.868 595.532 712.576 590.117C700.348 587.5 689.793 585.236 680.254 585.229C650.016 585.157 642.518 587.55 620.283 594.616C605.344 599.367 584.883 605.87 547.175 615.027C508.552 624.421 448.502 626.39 390.463 620.16C357.269 616.599 325.812 610.593 296.973 602.302C264.615 593.001 236.273 581.004 212.733 566.627C170.267 540.701 143.908 507.492 134.398 467.932C124.925 428.119 125.631 387.326 136.504 346.677C147.304 306.288 167.571 268.133 196.742 233.274C238.89 182.899 298.105 142.113 367.99 115.321C405.25 101.039 445.618 90.6564 487.983 84.4703C519.374 79.8993 552.092 77.5922 585.669 77.5777ZM768.207 595.741C780.781 595.733 794.415 594.364 809.253 590.715C890.947 570.968 941.841 550.658 942.086 537.709C942.519 525.611 936.081 521.588 925.41 514.911C907.364 503.614 877.155 484.709 848.431 407.276C839.051 382.993 838.185 349.922 837.27 314.911C835.965 265.069 834.487 208.573 808.005 163.959C777.572 112.682 718.856 85.3788 628.517 80.4761C579.966 77.7364 532.763 79.6542 488.206 86.1574C445.964 92.329 405.719 102.675 368.574 116.915C298.963 143.605 239.986 184.218 198.018 234.37C169.006 269.042 148.854 306.973 138.119 347.124C127.326 387.492 126.619 428.011 136.028 467.55C145.429 506.656 171.529 539.511 213.606 565.2C244.702 584.183 300.65 608.841 390.636 618.488C448.494 624.695 508.329 622.742 546.772 613.39C584.421 604.241 604.847 597.752 619.764 593.008C641.581 586.072 649.757 583.484 680.254 583.534C689.973 583.542 700.608 585.82 712.929 588.459C728.711 591.847 746.931 595.748 768.207 595.741Z" fill="white"/>
</g>
<mask id="mask2_42_57" style="mask-type:alpha" maskUnits="userSpaceOnUse" x="163" y="110" width="749" height="497">
<path d="M576.274 110.267C587.218 110.26 598.278 110.527 609.475 111.06C690.737 114.55 744.4 137.939 773.528 182.567C798.906 221.457 802.259 271.27 805.215 315.221C807.378 347.326 809.418 377.651 819.533 399.915C848.178 468.091 876.808 486.397 893.91 497.341C904.797 504.306 911.985 508.906 911.726 521.602C911.92 538.942 851.394 562.929 795.078 577.868C758.683 587.875 730.132 582.922 707.19 578.942C696.786 577.139 687.803 575.575 679.425 575.532C645.07 575.265 638.776 576.858 603.808 585.676C590.643 588.992 574.255 593.131 550.881 598.574C526.98 604.155 493.945 606.902 457.845 606.31C417.225 605.647 376.317 600.795 339.539 592.28C296.014 582.208 259.698 567.485 231.616 548.524C198.897 526.433 178.133 498.963 169.892 466.872C160.822 430.744 160.981 393.657 170.368 356.641C179.698 319.842 197.65 285.033 223.728 253.188C261.068 207.593 313.764 170.491 376.122 145.905C436.115 122.25 503.325 110.296 576.274 110.267ZM751.869 582.157C764.796 582.15 779 580.643 794.66 576.339C861.733 558.553 910.298 535.524 910.139 521.595C910.384 509.756 903.86 505.582 893.052 498.668C875.792 487.629 846.909 469.151 818.077 400.542C807.854 378.033 805.806 347.571 803.636 315.315C800.694 271.558 797.356 221.969 772.201 183.425C743.376 139.251 690.117 116.093 609.403 112.632C523.772 108.559 445.481 120.246 376.699 147.376C314.593 171.868 262.12 208.804 224.946 254.19C199.02 285.855 181.168 320.448 171.897 357.031C162.574 393.794 162.416 430.621 171.421 466.483C179.561 498.185 200.109 525.344 232.495 547.211C260.419 566.065 296.554 580.708 339.893 590.737C376.569 599.223 417.362 604.061 457.874 604.724C493.844 605.308 526.75 602.583 550.52 597.031C573.88 591.588 590.261 587.457 603.419 584.14C638.552 575.279 644.875 573.693 679.432 573.945C687.94 573.989 696.981 575.56 707.457 577.377C720.348 579.62 735.027 582.165 751.869 582.157Z" fill="url(#paint2_linear_42_57)"/>
</mask>
<g mask="url(#mask2_42_57)">
<path d="M576.274 110.267C587.218 110.26 598.278 110.527 609.475 111.06C690.737 114.55 744.4 137.939 773.528 182.567C798.906 221.457 802.259 271.27 805.215 315.221C807.378 347.326 809.418 377.651 819.533 399.915C848.178 468.091 876.808 486.397 893.91 497.341C904.797 504.306 911.985 508.906 911.726 521.602C911.92 538.942 851.394 562.929 795.078 577.868C758.683 587.875 730.132 582.922 707.19 578.942C696.786 577.139 687.803 575.575 679.425 575.532C645.07 575.265 638.776 576.858 603.808 585.676C590.643 588.992 574.255 593.131 550.881 598.574C526.98 604.155 493.945 606.902 457.845 606.31C417.225 605.647 376.317 600.795 339.539 592.28C296.014 582.208 259.698 567.485 231.616 548.524C198.897 526.433 178.133 498.963 169.892 466.872C160.822 430.744 160.981 393.657 170.368 356.641C179.698 319.842 197.65 285.033 223.728 253.188C261.068 207.593 313.764 170.491 376.122 145.905C436.115 122.25 503.325 110.296 576.274 110.267ZM751.869 582.157C764.796 582.15 779 580.643 794.66 576.339C861.733 558.553 910.298 535.524 910.139 521.595C910.384 509.756 903.86 505.582 893.052 498.668C875.792 487.629 846.909 469.151 818.077 400.542C807.854 378.033 805.806 347.571 803.636 315.315C800.694 271.558 797.356 221.969 772.201 183.425C743.376 139.251 690.117 116.093 609.403 112.632C523.772 108.559 445.481 120.246 376.699 147.376C314.593 171.868 262.12 208.804 224.946 254.19C199.02 285.855 181.168 320.448 171.897 357.031C162.574 393.794 162.416 430.621 171.421 466.483C179.561 498.185 200.109 525.344 232.495 547.211C260.419 566.065 296.554 580.708 339.893 590.737C376.569 599.223 417.362 604.061 457.874 604.724C493.844 605.308 526.75 602.583 550.52 597.031C573.88 591.588 590.261 587.457 603.419 584.14C638.552 575.279 644.875 573.693 679.432 573.945C687.94 573.989 696.981 575.56 707.457 577.377C720.348 579.62 735.027 582.165 751.869 582.157Z" fill="white"/>
</g>
<mask id="mask3_42_57" style="mask-type:alpha" maskUnits="userSpaceOnUse" x="198" y="142" width="682" height="448">
<path d="M567.485 142.914C575.034 142.914 582.648 143.051 590.333 143.332C661.999 145.394 710.168 164.666 737.587 202.25C761.567 235.127 766.484 276.209 771.235 315.942C774.724 345.135 778.027 372.705 789.043 393.152C817.659 452.576 843.932 469.713 861.315 481.054C872.785 488.538 879.707 493.059 879.664 505.452C880.305 521.278 836.743 546.736 780.485 563.376C747.652 573.65 721.783 570.427 700.997 567.839C693.044 566.844 685.539 565.914 678.589 565.835L675.07 565.784C634.616 565.2 631.314 565.15 554.58 582.114C533.022 586.895 502.121 589.389 469.807 588.957C432.64 588.452 395.264 584.277 361.724 576.887C321.868 568.099 288.559 555.15 262.733 538.401C232.603 518.863 213.31 494.436 205.386 465.813C196.706 433.369 196.316 399.98 204.211 366.584C212.07 333.354 227.708 301.89 250.693 273.058C283.231 232.243 329.417 198.84 384.255 176.461C438.812 154.19 500.347 142.935 567.485 142.914ZM734.335 568.964C747.875 568.957 763.03 567.298 780.06 561.963C834.79 545.777 878.806 520.434 878.193 505.474C878.236 493.845 871.56 489.49 860.507 482.28C844.047 471.545 816.505 453.57 787.724 393.815C776.592 373.152 773.275 345.445 769.764 316.115C765.035 276.569 760.146 235.682 736.39 203.116C709.259 165.92 661.465 146.843 590.276 144.795C514.421 142.02 445.286 153.13 384.81 177.809C330.21 200.102 284.233 233.346 251.854 273.967C229.006 302.626 213.461 333.902 205.653 366.916C197.809 400.074 198.198 433.217 206.814 465.423C214.637 493.686 233.728 517.824 263.541 537.161C289.222 553.816 322.366 566.693 362.049 575.445C395.495 582.821 432.77 586.981 469.835 587.479C502.035 587.918 532.813 585.431 554.27 580.673C631.177 563.672 634.493 563.722 675.099 564.313L678.61 564.364C685.64 564.436 693.189 565.38 701.184 566.375C711.026 567.601 722.014 568.971 734.335 568.964Z" fill="url(#paint3_linear_42_57)"/>
</mask>
<g mask="url(#mask3_42_57)">
<path d="M567.485 142.914C575.034 142.914 582.648 143.051 590.333 143.332C661.999 145.394 710.168 164.666 737.587 202.25C761.567 235.127 766.484 276.209 771.235 315.942C774.724 345.135 778.027 372.705 789.043 393.152C817.659 452.576 843.932 469.713 861.315 481.054C872.785 488.538 879.707 493.059 879.664 505.452C880.305 521.278 836.743 546.736 780.485 563.376C747.652 573.65 721.783 570.427 700.997 567.839C693.044 566.844 685.539 565.914 678.589 565.835L675.07 565.784C634.616 565.2 631.314 565.15 554.58 582.114C533.022 586.895 502.121 589.389 469.807 588.957C432.64 588.452 395.264 584.277 361.724 576.887C321.868 568.099 288.559 555.15 262.733 538.401C232.603 518.863 213.31 494.436 205.386 465.813C196.706 433.369 196.316 399.98 204.211 366.584C212.07 333.354 227.708 301.89 250.693 273.058C283.231 232.243 329.417 198.84 384.255 176.461C438.812 154.19 500.347 142.935 567.485 142.914ZM734.335 568.964C747.875 568.957 763.03 567.298 780.06 561.963C834.79 545.777 878.806 520.434 878.193 505.474C878.236 493.845 871.56 489.49 860.507 482.28C844.047 471.545 816.505 453.57 787.724 393.815C776.592 373.152 773.275 345.445 769.764 316.115C765.035 276.569 760.146 235.682 736.39 203.116C709.259 165.92 661.465 146.843 590.276 144.795C514.421 142.02 445.286 153.13 384.81 177.809C330.21 200.102 284.233 233.346 251.854 273.967C229.006 302.626 213.461 333.902 205.653 366.916C197.809 400.074 198.198 433.217 206.814 465.423C214.637 493.686 233.728 517.824 263.541 537.161C289.222 553.816 322.366 566.693 362.049 575.445C395.495 582.821 432.77 586.981 469.835 587.479C502.035 587.918 532.813 585.431 554.27 580.673C631.177 563.672 634.493 563.722 675.099 564.313L678.61 564.364C685.64 564.436 693.189 565.38 701.184 566.375C711.026 567.601 722.014 568.971 734.335 568.964Z" fill="white"/>
</g>
<mask id="mask4_42_57" style="mask-type:alpha" maskUnits="userSpaceOnUse" x="233" y="175" width="615" height="397">
<path d="M558.74 175.458C562.871 175.458 567.017 175.502 571.198 175.595C710.543 177.081 724.595 251.493 736.988 317.146C741.913 343.217 746.556 367.838 758.546 386.375C786.909 437.009 811.898 453.578 828.438 464.536C840.276 472.381 847.421 477.125 847.609 489.281C848.142 496.973 840.031 507.738 825.352 518.783C809.764 530.514 788.647 541.199 765.907 548.87C735.813 559.865 713.073 558.3 693.001 556.916C687.68 556.548 682.648 556.202 677.767 556.123C670.413 555.964 664.003 555.683 658.351 555.438C632.237 554.306 616.483 553.621 558.293 565.633C521.184 573.34 450.787 575.323 383.923 561.465C347.73 553.967 317.434 542.792 293.872 528.25C266.331 511.263 248.508 489.886 240.895 464.724C232.596 435.949 231.644 406.259 238.047 376.468C244.427 346.807 257.744 318.667 277.643 292.834C305.387 256.807 345.077 227.11 392.409 206.951C441.472 186.064 497.377 175.487 558.74 175.458ZM714.883 556.534C729.497 556.527 745.921 554.731 765.46 547.594C814.321 531.112 847.255 503.671 846.253 489.345C846.073 477.86 839.151 473.275 827.688 465.676C811.04 454.637 785.885 437.961 757.378 387.081C745.265 368.35 740.593 343.606 735.647 317.398C729.367 284.147 722.879 249.763 700.615 223.065C675.287 192.697 632.943 177.614 571.177 176.951C505.099 175.466 445.135 185.978 392.943 208.206C345.826 228.278 306.331 257.824 278.725 293.664C258.955 319.331 245.718 347.29 239.381 376.75C233.022 406.317 233.973 435.791 242.2 464.335C251.969 496.627 284.536 539.475 384.197 560.132C450.874 573.953 521.04 571.977 558.012 564.299C616.368 552.251 632.193 552.936 658.401 554.075C664.046 554.32 670.449 554.594 677.781 554.76C682.698 554.847 687.745 555.193 693.088 555.56C699.98 556.044 707.183 556.541 714.883 556.534Z" fill="url(#paint4_linear_42_57)"/>
</mask>
<g mask="url(#mask4_42_57)">
<path d="M558.74 175.458C562.871 175.458 567.017 175.502 571.198 175.595C710.543 177.081 724.595 251.493 736.988 317.146C741.913 343.217 746.556 367.838 758.546 386.375C786.909 437.009 811.898 453.578 828.438 464.536C840.276 472.381 847.421 477.125 847.609 489.281C848.142 496.973 840.031 507.738 825.352 518.783C809.764 530.514 788.647 541.199 765.907 548.87C735.813 559.865 713.073 558.3 693.001 556.916C687.68 556.548 682.648 556.202 677.767 556.123C670.413 555.964 664.003 555.683 658.351 555.438C632.237 554.306 616.483 553.621 558.293 565.633C521.184 573.34 450.787 575.323 383.923 561.465C347.73 553.967 317.434 542.792 293.872 528.25C266.331 511.263 248.508 489.886 240.895 464.724C232.596 435.949 231.644 406.259 238.047 376.468C244.427 346.807 257.744 318.667 277.643 292.834C305.387 256.807 345.077 227.11 392.409 206.951C441.472 186.064 497.377 175.487 558.74 175.458ZM714.883 556.534C729.497 556.527 745.921 554.731 765.46 547.594C814.321 531.112 847.255 503.671 846.253 489.345C846.073 477.86 839.151 473.275 827.688 465.676C811.04 454.637 785.885 437.961 757.378 387.081C745.265 368.35 740.593 343.606 735.647 317.398C729.367 284.147 722.879 249.763 700.615 223.065C675.287 192.697 632.943 177.614 571.177 176.951C505.099 175.466 445.135 185.978 392.943 208.206C345.826 228.278 306.331 257.824 278.725 293.664C258.955 319.331 245.718 347.29 239.381 376.75C233.022 406.317 233.973 435.791 242.2 464.335C251.969 496.627 284.536 539.475 384.197 560.132C450.874 573.953 521.04 571.977 558.012 564.299C616.368 552.251 632.193 552.936 658.401 554.075C664.046 554.32 670.449 554.594 677.781 554.76C682.698 554.847 687.745 555.193 693.088 555.56C699.98 556.044 707.183 556.541 714.883 556.534Z" fill="white"/>
</g>
<mask id="mask5_42_57" style="mask-type:alpha" maskUnits="userSpaceOnUse" x="269" y="207" width="547" height="348">
<path d="M556.541 207.837C607.031 207.815 642.799 219.171 665.784 242.487C686.692 263.699 694.71 291.824 702.46 319.027C708.92 341.695 715.02 363.108 728.055 379.611C755.813 421.399 779.454 437.225 795.099 447.693C807.58 456.05 815.121 461.089 815.561 473.13C817.161 489.359 790.031 519.02 751.336 534.377C721.473 547.571 700.031 547.023 679.295 546.49L676.938 546.432C666.945 546.122 658.574 545.314 650.477 544.536C628.776 542.445 608.278 540.462 561.998 549.179C528.278 555.581 465.12 557.34 406.122 546.071C356.396 536.569 293.526 514.565 276.403 463.663C260.548 413.476 270.808 358.4 304.543 312.552C327.521 281.327 360.722 255.342 400.556 237.419C444.103 217.823 494.406 207.88 550.081 207.859C550.744 207.859 551.4 207.859 552.063 207.859C553.563 207.844 555.055 207.837 556.541 207.837ZM691.804 545.451C708.762 545.444 727.14 543.707 750.853 533.224C792.223 516.807 815.683 487.218 814.306 473.216C813.881 461.774 806.549 456.864 794.4 448.732C778.668 438.205 754.905 422.3 727.039 380.339C713.881 363.677 707.745 342.149 701.256 319.359C693.549 292.307 685.575 264.34 664.89 243.353C641.487 219.603 604.594 208.414 552.063 209.106C551.407 209.106 550.744 209.099 550.088 209.106C494.572 209.128 444.457 219.034 401.061 238.558C361.421 256.395 328.393 282.235 305.545 313.295C288.847 335.992 277.917 360.642 273.065 386.576C268.198 412.574 269.719 438.378 277.585 463.274C294.521 513.598 356.958 535.408 406.353 544.846C465.192 556.086 528.163 554.334 561.761 547.953C608.221 539.208 628.805 541.19 650.593 543.296C658.668 544.074 667.017 544.882 676.974 545.185L679.324 545.242C683.441 545.35 687.579 545.459 691.804 545.451Z" fill="url(#paint5_linear_42_57)"/>
</mask>
<g mask="url(#mask5_42_57)">
<path d="M556.541 207.837C607.031 207.815 642.799 219.171 665.784 242.487C686.692 263.699 694.71 291.824 702.46 319.027C708.92 341.695 715.02 363.108 728.055 379.611C755.813 421.399 779.454 437.225 795.099 447.693C807.58 456.05 815.121 461.089 815.561 473.13C817.161 489.359 790.031 519.02 751.336 534.377C721.473 547.571 700.031 547.023 679.295 546.49L676.938 546.432C666.945 546.122 658.574 545.314 650.477 544.536C628.776 542.445 608.278 540.462 561.998 549.179C528.278 555.581 465.12 557.34 406.122 546.071C356.396 536.569 293.526 514.565 276.403 463.663C260.548 413.476 270.808 358.4 304.543 312.552C327.521 281.327 360.722 255.342 400.556 237.419C444.103 217.823 494.406 207.88 550.081 207.859C550.744 207.859 551.4 207.859 552.063 207.859C553.563 207.844 555.055 207.837 556.541 207.837ZM691.804 545.451C708.762 545.444 727.14 543.707 750.853 533.224C792.223 516.807 815.683 487.218 814.306 473.216C813.881 461.774 806.549 456.864 794.4 448.732C778.668 438.205 754.905 422.3 727.039 380.339C713.881 363.677 707.745 342.149 701.256 319.359C693.549 292.307 685.575 264.34 664.89 243.353C641.487 219.603 604.594 208.414 552.063 209.106C551.407 209.106 550.744 209.099 550.088 209.106C494.572 209.128 444.457 219.034 401.061 238.558C361.421 256.395 328.393 282.235 305.545 313.295C288.847 335.992 277.917 360.642 273.065 386.576C268.198 412.574 269.719 438.378 277.585 463.274C294.521 513.598 356.958 535.408 406.353 544.846C465.192 556.086 528.163 554.334 561.761 547.953C608.221 539.208 628.805 541.19 650.593 543.296C658.668 544.074 667.017 544.882 676.974 545.185L679.324 545.242C683.441 545.35 687.579 545.459 691.804 545.451Z" fill="white"/>
</g>
<mask id="mask6_42_57" style="mask-type:alpha" maskUnits="userSpaceOnUse" x="304" y="239" width="480" height="298">
<path d="M546.368 239.813C583.296 239.799 610.751 247.499 630.052 263.238C649.259 278.898 658.632 300.744 667.695 321.869C675.438 339.915 683.448 358.574 697.543 372.864C724.097 405.704 746.246 420.492 760.896 430.283C774.53 439.389 782.756 444.883 783.499 456.995C785.438 472.338 768.207 504.501 736.765 519.894C714.609 532.395 696.462 537.442 676.116 536.75H676.109C665.301 536.303 655.95 534.818 646.051 533.246C625.128 529.93 603.491 526.498 565.697 532.734C535.193 537.832 479.187 539.367 428.307 530.687C384.219 523.16 328.227 505.243 311.904 462.619C296.684 419.634 303.772 372.085 331.342 332.15C349.576 305.733 376.317 283.491 408.675 267.824C444.464 250.491 486.267 241.183 532.914 240.145C537.529 239.922 542.02 239.813 546.368 239.813ZM679.771 535.654C698.459 535.647 715.575 530.528 736.238 518.863C767.262 503.679 784.27 472.136 782.367 457.089C781.66 445.503 774.061 440.434 760.269 431.22C745.554 421.393 723.326 406.548 696.7 373.613C682.489 359.208 674.436 340.448 666.649 322.308C657.637 301.313 648.322 279.605 629.331 264.118C607.99 246.721 576.469 239.251 532.957 241.277C486.461 242.308 444.825 251.58 409.179 268.84C377.002 284.421 350.412 306.533 332.286 332.791C304.932 372.424 297.896 419.591 312.979 462.208C329.114 504.32 384.709 522.071 428.502 529.548C479.251 538.207 535.099 536.678 565.51 531.595C603.484 525.33 625.214 528.776 646.224 532.107C656.094 533.672 665.409 535.15 676.152 535.597C677.37 535.64 678.574 535.654 679.771 535.654Z" fill="url(#paint6_linear_42_57)"/>
</mask>
<g mask="url(#mask6_42_57)">
<path d="M546.368 239.813C583.296 239.799 610.751 247.499 630.052 263.238C649.259 278.898 658.632 300.744 667.695 321.869C675.438 339.915 683.448 358.574 697.543 372.864C724.097 405.704 746.246 420.492 760.896 430.283C774.53 439.389 782.756 444.883 783.499 456.995C785.438 472.338 768.207 504.501 736.765 519.894C714.609 532.395 696.462 537.442 676.116 536.75H676.109C665.301 536.303 655.95 534.818 646.051 533.246C625.128 529.93 603.491 526.498 565.697 532.734C535.193 537.832 479.187 539.367 428.307 530.687C384.219 523.16 328.227 505.243 311.904 462.619C296.684 419.634 303.772 372.085 331.342 332.15C349.576 305.733 376.317 283.491 408.675 267.824C444.464 250.491 486.267 241.183 532.914 240.145C537.529 239.922 542.02 239.813 546.368 239.813ZM679.771 535.654C698.459 535.647 715.575 530.528 736.238 518.863C767.262 503.679 784.27 472.136 782.367 457.089C781.66 445.503 774.061 440.434 760.269 431.22C745.554 421.393 723.326 406.548 696.7 373.613C682.489 359.208 674.436 340.448 666.649 322.308C657.637 301.313 648.322 279.605 629.331 264.118C607.99 246.721 576.469 239.251 532.957 241.277C486.461 242.308 444.825 251.58 409.179 268.84C377.002 284.421 350.412 306.533 332.286 332.791C304.932 372.424 297.896 419.591 312.979 462.208C329.114 504.32 384.709 522.071 428.502 529.548C479.251 538.207 535.099 536.678 565.51 531.595C603.484 525.33 625.214 528.776 646.224 532.107C656.094 533.672 665.409 535.15 676.152 535.597C677.37 535.64 678.574 535.654 679.771 535.654Z" fill="white"/>
</g>
<mask id="mask7_42_57" style="mask-type:alpha" maskUnits="userSpaceOnUse" x="338" y="271" width="414" height="257">
<path d="M536.728 271.226C596.224 271.204 614.183 297.96 633.08 326.114C642.403 340.001 652.042 354.355 667.039 366.1C691.249 389.784 710.708 402.459 724.912 411.717C741.3 422.394 750.326 428.278 751.444 440.823C752.742 449.208 750.759 461.674 746.26 473.317C740.831 487.391 732.287 498.768 722.208 505.358C706.109 518.105 692.41 527.817 675.287 527.031H675.279C664.479 526.439 654.01 524.104 642.922 521.631C622.914 517.168 600.232 512.114 569.403 516.252C548.055 519.179 498.992 522.258 450.506 515.264C425.279 511.623 404.002 505.776 387.268 497.867C367.492 488.53 354.089 476.302 347.413 461.529C332.712 425.704 336.569 385.603 357.968 351.493C371.515 329.907 391.847 311.428 416.757 298.054C444.305 283.266 476.944 274.629 513.758 272.394C522.049 271.608 529.684 271.233 536.728 271.226ZM677.226 526.05C693.131 526.043 706.246 516.692 721.61 504.529C744.66 489.468 752.612 455.141 750.42 440.96C749.339 428.883 740.463 423.101 724.349 412.596C710.11 403.317 690.6 390.599 666.361 366.886C651.271 355.076 641.588 340.649 632.222 326.698C621.545 310.794 611.458 295.768 594.234 285.465C574.825 273.858 549.28 270.036 513.851 273.447C477.175 275.675 444.68 284.269 417.261 298.991C392.503 312.279 372.308 330.635 358.855 352.07C337.629 385.891 333.808 425.653 348.371 461.147C354.932 475.675 368.17 487.73 387.715 496.959C404.363 504.817 425.538 510.643 450.657 514.262C499.028 521.241 547.968 518.163 569.266 515.25C600.276 511.09 623.059 516.165 643.152 520.65C654.198 523.116 664.623 525.437 675.337 526.021C675.972 526.036 676.599 526.05 677.226 526.05Z" fill="url(#paint7_linear_42_57)"/>
</mask>
<g mask="url(#mask7_42_57)">
<path d="M536.728 271.226C596.224 271.204 614.183 297.96 633.08 326.114C642.403 340.001 652.042 354.355 667.039 366.1C691.249 389.784 710.708 402.459 724.912 411.717C741.3 422.394 750.326 428.278 751.444 440.823C752.742 449.208 750.759 461.674 746.26 473.317C740.831 487.391 732.287 498.768 722.208 505.358C706.109 518.105 692.41 527.817 675.287 527.031H675.279C664.479 526.439 654.01 524.104 642.922 521.631C622.914 517.168 600.232 512.114 569.403 516.252C548.055 519.179 498.992 522.258 450.506 515.264C425.279 511.623 404.002 505.776 387.268 497.867C367.492 488.53 354.089 476.302 347.413 461.529C332.712 425.704 336.569 385.603 357.968 351.493C371.515 329.907 391.847 311.428 416.757 298.054C444.305 283.266 476.944 274.629 513.758 272.394C522.049 271.608 529.684 271.233 536.728 271.226ZM677.226 526.05C693.131 526.043 706.246 516.692 721.61 504.529C744.66 489.468 752.612 455.141 750.42 440.96C749.339 428.883 740.463 423.101 724.349 412.596C710.11 403.317 690.6 390.599 666.361 366.886C651.271 355.076 641.588 340.649 632.222 326.698C621.545 310.794 611.458 295.768 594.234 285.465C574.825 273.858 549.28 270.036 513.851 273.447C477.175 275.675 444.68 284.269 417.261 298.991C392.503 312.279 372.308 330.635 358.855 352.07C337.629 385.891 333.808 425.653 348.371 461.147C354.932 475.675 368.17 487.73 387.715 496.959C404.363 504.817 425.538 510.643 450.657 514.262C499.028 521.241 547.968 518.163 569.266 515.25C600.276 511.09 623.059 516.165 643.152 520.65C654.198 523.116 664.623 525.437 675.337 526.021C675.972 526.036 676.599 526.05 677.226 526.05Z" fill="white"/>
</g>
<mask id="mask8_42_57" style="mask-type:alpha" maskUnits="userSpaceOnUse" x="372" y="301" width="349" height="217">
<path d="M528.069 301.378C564.003 301.364 580.615 315.625 600.535 332.719C610.932 341.645 621.682 350.866 636.541 359.367C655.791 373.397 671.502 382.907 684.126 390.542C705.784 403.649 717.717 410.866 719.396 424.673C722.194 440.073 721.653 476.49 707.702 490.794C706.88 491.912 706.058 493.044 705.244 494.169C696.7 505.964 687.861 518.156 674.465 517.334H674.458C664.039 516.591 652.432 513.26 640.146 509.727C620.269 504.017 597.731 497.536 573.109 499.792C546.462 502.316 412.042 512.294 382.936 460.484C368.53 431.739 368.999 398.948 384.226 370.499C393.31 353.519 406.944 339.251 424.745 328.076C444.147 315.899 467.658 308.025 494.616 304.68C507.435 302.409 518.444 301.385 528.069 301.378ZM675.727 516.454C687.954 516.447 696.354 504.854 704.487 493.628C705.308 492.489 706.138 491.35 706.967 490.218L707.01 490.167C720.745 476.115 721.249 440.088 718.474 424.81C716.844 411.422 705.049 404.284 683.636 391.328C670.997 383.678 655.265 374.161 636.029 360.131C621.141 351.616 610.355 342.366 599.922 333.411C574.861 311.897 555.063 294.911 494.746 305.588C467.896 308.927 444.515 316.749 425.228 328.855C407.564 339.943 394.039 354.096 385.034 370.931C369.951 399.114 369.482 431.595 383.743 460.052C395.344 480.694 425.308 493.786 472.799 498.949C514.601 503.491 556.808 500.405 573.015 498.869C597.81 496.606 620.434 503.102 640.391 508.841C652.633 512.359 664.191 515.683 674.515 516.411C674.926 516.44 675.33 516.454 675.727 516.454Z" fill="url(#paint8_linear_42_57)"/>
</mask>
<g mask="url(#mask8_42_57)">
<path d="M528.069 301.378C564.003 301.364 580.615 315.625 600.535 332.719C610.932 341.645 621.682 350.866 636.541 359.367C655.791 373.397 671.502 382.907 684.126 390.542C705.784 403.649 717.717 410.866 719.396 424.673C722.194 440.073 721.653 476.49 707.702 490.794C706.88 491.912 706.058 493.044 705.244 494.169C696.7 505.964 687.861 518.156 674.465 517.334H674.458C664.039 516.591 652.432 513.26 640.146 509.727C620.269 504.017 597.731 497.536 573.109 499.792C546.462 502.316 412.042 512.294 382.936 460.484C368.53 431.739 368.999 398.948 384.226 370.499C393.31 353.519 406.944 339.251 424.745 328.076C444.147 315.899 467.658 308.025 494.616 304.68C507.435 302.409 518.444 301.385 528.069 301.378ZM675.727 516.454C687.954 516.447 696.354 504.854 704.487 493.628C705.308 492.489 706.138 491.35 706.967 490.218L707.01 490.167C720.745 476.115 721.249 440.088 718.474 424.81C716.844 411.422 705.049 404.284 683.636 391.328C670.997 383.678 655.265 374.161 636.029 360.131C621.141 351.616 610.355 342.366 599.922 333.411C574.861 311.897 555.063 294.911 494.746 305.588C467.896 308.927 444.515 316.749 425.228 328.855C407.564 339.943 394.039 354.096 385.034 370.931C369.951 399.114 369.482 431.595 383.743 460.052C395.344 480.694 425.308 493.786 472.799 498.949C514.601 503.491 556.808 500.405 573.015 498.869C597.81 496.606 620.434 503.102 640.391 508.841C652.633 512.359 664.191 515.683 674.515 516.411C674.926 516.44 675.33 516.454 675.727 516.454Z" fill="white"/>
</g>
<mask id="mask9_42_57" style="mask-type:alpha" maskUnits="userSpaceOnUse" x="404" y="327" width="291" height="181">
<path d="M522.712 327.902C543.96 327.895 561.011 334.744 584.587 344.211C591.285 346.9 598.214 349.683 606.029 352.639C611.631 355.379 616.88 357.924 621.826 360.325C664.84 381.183 684.479 390.7 687.334 408.53C690.096 421.753 698.495 462.02 693.145 476.18C690.305 491.356 685.496 508.624 673.628 507.651H673.621C663.729 506.742 650.744 502.178 636.988 497.348C617.594 490.534 595.611 482.82 576.793 483.339C573.217 483.454 568.927 483.656 563.974 483.887C543.657 484.839 512.95 486.281 484.63 483.721C450.744 480.657 428.48 472.488 418.451 459.453C404.01 438.032 400.643 411.637 409.424 388.818C419.165 363.519 442.604 345.098 475.43 336.965C494.565 330.584 509.461 327.91 522.712 327.902ZM674.573 506.865C685.179 506.857 689.641 490.441 692.345 475.985L692.367 475.913C697.652 462.012 689.281 421.861 686.527 408.667C683.737 391.233 664.22 381.774 621.465 361.046C616.519 358.645 611.271 356.1 605.697 353.375C597.911 350.433 590.982 347.65 584.277 344.954C546.173 329.654 525.185 321.226 475.661 337.729C443.065 345.804 419.828 364.045 410.189 389.092C401.501 411.666 404.839 437.78 419.114 458.955C428.985 471.789 451.054 479.849 484.702 482.892C512.972 485.451 543.642 484.01 563.938 483.058C568.898 482.827 573.188 482.625 576.772 482.51C595.741 481.984 617.796 489.727 637.255 496.562C650.953 501.371 663.902 505.92 673.686 506.821C673.996 506.85 674.292 506.865 674.573 506.865Z" fill="url(#paint9_linear_42_57)"/>
</mask>
<g mask="url(#mask9_42_57)">
<path d="M522.712 327.902C543.96 327.895 561.011 334.744 584.587 344.211C591.285 346.9 598.214 349.683 606.029 352.639C611.631 355.379 616.88 357.924 621.826 360.325C664.84 381.183 684.479 390.7 687.334 408.53C690.096 421.753 698.495 462.02 693.145 476.18C690.305 491.356 685.496 508.624 673.628 507.651H673.621C663.729 506.742 650.744 502.178 636.988 497.348C617.594 490.534 595.611 482.82 576.793 483.339C573.217 483.454 568.927 483.656 563.974 483.887C543.657 484.839 512.95 486.281 484.63 483.721C450.744 480.657 428.48 472.488 418.451 459.453C404.01 438.032 400.643 411.637 409.424 388.818C419.165 363.519 442.604 345.098 475.43 336.965C494.565 330.584 509.461 327.91 522.712 327.902ZM674.573 506.865C685.179 506.857 689.641 490.441 692.345 475.985L692.367 475.913C697.652 462.012 689.281 421.861 686.527 408.667C683.737 391.233 664.22 381.774 621.465 361.046C616.519 358.645 611.271 356.1 605.697 353.375C597.911 350.433 590.982 347.65 584.277 344.954C546.173 329.654 525.185 321.226 475.661 337.729C443.065 345.804 419.828 364.045 410.189 389.092C401.501 411.666 404.839 437.78 419.114 458.955C428.985 471.789 451.054 479.849 484.702 482.892C512.972 485.451 543.642 484.01 563.938 483.058C568.898 482.827 573.188 482.625 576.772 482.51C595.741 481.984 617.796 489.727 637.255 496.562C650.953 501.371 663.902 505.92 673.686 506.821C673.996 506.85 674.292 506.865 674.573 506.865Z" fill="white"/>
</g>
<mask id="mask10_42_57" style="mask-type:alpha" maskUnits="userSpaceOnUse" x="430" y="341" width="252" height="157">
<path d="M535.055 341.53C547.413 341.523 560.831 342.986 575.539 345.928C627.493 359.331 651.335 373.224 655.279 392.381C657.348 401.169 663.398 418.019 668.74 432.885C672.972 444.659 676.966 455.777 678.509 461.537C680.384 466.433 681.537 473.282 681.595 479.821C681.653 486.981 680.42 492.561 678.12 495.532C676.7 497.363 674.912 498.178 672.806 497.94C663.39 496.808 648.293 490.542 632.309 483.902C613.311 476.015 593.671 467.86 580.499 466.865C573.332 466.346 561.991 466.974 548.869 467.702C516.288 469.504 471.652 471.97 454.024 458.401C438.206 444.392 429.468 424.392 431.198 406.188C432.647 390.888 441.313 378.12 456.245 369.259C473.253 356.288 489.273 348.422 506.605 344.515C515.437 342.532 524.89 341.537 535.055 341.53ZM673.491 497.276C675.07 497.276 676.44 496.548 677.558 495.106C682.251 489.05 681.631 471.703 677.832 461.761C676.281 455.993 672.294 444.89 668.069 433.131C662.72 418.242 656.656 401.371 654.58 392.539C650.694 373.678 627.01 359.951 575.373 346.627C548.696 341.299 526.238 340.838 506.75 345.228C489.518 349.107 473.584 356.937 456.627 369.864C441.861 378.624 433.318 391.206 431.89 406.274C430.181 424.263 438.833 444.032 454.464 457.875C471.869 471.271 516.346 468.812 548.826 467.017C561.977 466.289 573.332 465.661 580.549 466.18C593.837 467.19 613.534 475.366 632.576 483.275C648.516 489.894 663.571 496.145 672.886 497.262C673.095 497.262 673.297 497.276 673.491 497.276Z" fill="url(#paint10_linear_42_57)"/>
</mask>
<g mask="url(#mask10_42_57)">
<path d="M535.055 341.53C547.413 341.523 560.831 342.986 575.539 345.928C627.493 359.331 651.335 373.224 655.279 392.381C657.348 401.169 663.398 418.019 668.74 432.885C672.972 444.659 676.966 455.777 678.509 461.537C680.384 466.433 681.537 473.282 681.595 479.821C681.653 486.981 680.42 492.561 678.12 495.532C676.7 497.363 674.912 498.178 672.806 497.94C663.39 496.808 648.293 490.542 632.309 483.902C613.311 476.015 593.671 467.86 580.499 466.865C573.332 466.346 561.991 466.974 548.869 467.702C516.288 469.504 471.652 471.97 454.024 458.401C438.206 444.392 429.468 424.392 431.198 406.188C432.647 390.888 441.313 378.12 456.245 369.259C473.253 356.288 489.273 348.422 506.605 344.515C515.437 342.532 524.89 341.537 535.055 341.53ZM673.491 497.276C675.07 497.276 676.44 496.548 677.558 495.106C682.251 489.05 681.631 471.703 677.832 461.761C676.281 455.993 672.294 444.89 668.069 433.131C662.72 418.242 656.656 401.371 654.58 392.539C650.694 373.678 627.01 359.951 575.373 346.627C548.696 341.299 526.238 340.838 506.75 345.228C489.518 349.107 473.584 356.937 456.627 369.864C441.861 378.624 433.318 391.206 431.89 406.274C430.181 424.263 438.833 444.032 454.464 457.875C471.869 471.271 516.346 468.812 548.826 467.017C561.977 466.289 573.332 465.661 580.549 466.18C593.837 467.19 613.534 475.366 632.576 483.275C648.516 489.894 663.571 496.145 672.886 497.262C673.095 497.262 673.297 497.276 673.491 497.276Z" fill="white"/>
</g>
<mask id="mask11_42_57" style="mask-type:alpha" maskUnits="userSpaceOnUse" x="436" y="339" width="241" height="150">
<path d="M540.412 339.15C541.963 339.15 543.505 339.179 545.056 339.23C570.275 340.109 589.901 344.507 603.405 352.308C614.003 358.429 620.672 366.483 623.217 376.231C627.392 392.193 651.66 434.515 663.787 446.988C668.307 451.631 672.215 459.324 674.501 468.091C676.57 476.022 676.837 483.21 675.186 486.404C674.45 487.824 673.333 488.459 671.97 488.242C662.424 486.728 641.725 476.714 621.703 467.024C606.18 459.511 591.516 452.417 584.169 450.391C575.834 448.084 558.43 450.744 540.009 453.556C521.032 456.454 501.407 459.446 489.626 457.348C477.298 455.157 463.246 447.831 452.95 438.228C440.917 427.002 435.25 414.046 436.995 401.739C439.028 387.341 451.652 371.422 470.758 359.158C490.967 346.194 515.538 339.158 540.412 339.15ZM672.496 487.687C673.405 487.687 674.119 487.175 674.659 486.13C677.868 479.944 673.311 457.622 663.362 447.406C651.184 434.89 626.829 392.409 622.64 376.382C620.131 366.793 613.563 358.869 603.109 352.827C589.699 345.077 570.16 340.708 545.041 339.828C518.725 338.905 492.453 345.956 471.083 359.67C452.402 371.659 439.569 387.81 437.586 401.825C435.877 413.931 441.479 426.707 453.361 437.788C463.577 447.319 477.514 454.587 489.735 456.757C501.422 458.834 520.996 455.849 539.922 452.957C558.408 450.138 575.87 447.471 584.335 449.807C591.739 451.854 606.426 458.956 621.97 466.483C641.948 476.152 662.612 486.144 672.071 487.644C672.215 487.68 672.359 487.687 672.496 487.687Z" fill="url(#paint11_linear_42_57)"/>
</mask>
<g mask="url(#mask11_42_57)">
<path d="M540.412 339.15C541.963 339.15 543.505 339.179 545.056 339.23C570.275 340.109 589.901 344.507 603.405 352.308C614.003 358.429 620.672 366.483 623.217 376.231C627.392 392.193 651.66 434.515 663.787 446.988C668.307 451.631 672.215 459.324 674.501 468.091C676.57 476.022 676.837 483.21 675.186 486.404C674.45 487.824 673.333 488.459 671.97 488.242C662.424 486.728 641.725 476.714 621.703 467.024C606.18 459.511 591.516 452.417 584.169 450.391C575.834 448.084 558.43 450.744 540.009 453.556C521.032 456.454 501.407 459.446 489.626 457.348C477.298 455.157 463.246 447.831 452.95 438.228C440.917 427.002 435.25 414.046 436.995 401.739C439.028 387.341 451.652 371.422 470.758 359.158C490.967 346.194 515.538 339.158 540.412 339.15ZM672.496 487.687C673.405 487.687 674.119 487.175 674.659 486.13C677.868 479.944 673.311 457.622 663.362 447.406C651.184 434.89 626.829 392.409 622.64 376.382C620.131 366.793 613.563 358.869 603.109 352.827C589.699 345.077 570.16 340.708 545.041 339.828C518.725 338.905 492.453 345.956 471.083 359.67C452.402 371.659 439.569 387.81 437.586 401.825C435.877 413.931 441.479 426.707 453.361 437.788C463.577 447.319 477.514 454.587 489.735 456.757C501.422 458.834 520.996 455.849 539.922 452.957C558.408 450.138 575.87 447.471 584.335 449.807C591.739 451.854 606.426 458.956 621.97 466.483C641.948 476.152 662.612 486.144 672.071 487.644C672.215 487.68 672.359 487.687 672.496 487.687Z" fill="white"/>
</g>
</g>
<defs>
<linearGradient id="paint0_linear_42_57" x1="975.789" y1="342.8" x2="92.2766" y2="343.154" gradientUnits="userSpaceOnUse">
<stop stop-color="white"/>
<stop offset="0.0436" stop-color="#B4B4B4"/>
<stop offset="0.1507"/>
<stop offset="0.1714" stop-color="#171717"/>
<stop offset="0.3859" stop-color="white"/>
<stop offset="0.6326" stop-color="#E6E6E6"/>
<stop offset="0.8567" stop-color="#1A1A1A"/>
<stop offset="0.9987"/>
</linearGradient>
<linearGradient id="paint1_linear_42_57" x1="943.724" y1="350.5" x2="127.75" y2="350.826" gradientUnits="userSpaceOnUse">
<stop stop-color="white"/>
<stop offset="0.0436" stop-color="#B4B4B4"/>
<stop offset="0.1507"/>
<stop offset="0.1714" stop-color="#171717"/>
<stop offset="0.3859" stop-color="white"/>
<stop offset="0.6326" stop-color="#E6E6E6"/>
<stop offset="0.8567" stop-color="#1A1A1A"/>
<stop offset="0.9987"/>
</linearGradient>
<linearGradient id="paint2_linear_42_57" x1="911.664" y1="358.172" x2="163.181" y2="358.471" gradientUnits="userSpaceOnUse">
<stop stop-color="white"/>
<stop offset="0.0436" stop-color="#B4B4B4"/>
<stop offset="0.1507"/>
<stop offset="0.1714" stop-color="#171717"/>
<stop offset="0.3859" stop-color="white"/>
<stop offset="0.6326" stop-color="#E6E6E6"/>
<stop offset="0.8567" stop-color="#1A1A1A"/>
<stop offset="0.9987"/>
</linearGradient>
<linearGradient id="paint3_linear_42_57" x1="879.619" y1="365.812" x2="198.557" y2="366.085" gradientUnits="userSpaceOnUse">
<stop stop-color="white"/>
<stop offset="0.0436" stop-color="#B4B4B4"/>
<stop offset="0.1507"/>
<stop offset="0.1714" stop-color="#171717"/>
<stop offset="0.3859" stop-color="white"/>
<stop offset="0.6326" stop-color="#E6E6E6"/>
<stop offset="0.8567" stop-color="#1A1A1A"/>
<stop offset="0.9987"/>
</linearGradient>
<linearGradient id="paint4_linear_42_57" x1="847.592" y1="373.436" x2="233.852" y2="373.681" gradientUnits="userSpaceOnUse">
<stop stop-color="white"/>
<stop offset="0.0436" stop-color="#B4B4B4"/>
<stop offset="0.1507"/>
<stop offset="0.1714" stop-color="#171717"/>
<stop offset="0.3859" stop-color="white"/>
<stop offset="0.6326" stop-color="#E6E6E6"/>
<stop offset="0.8567" stop-color="#1A1A1A"/>
<stop offset="0.9987"/>
</linearGradient>
<linearGradient id="paint5_linear_42_57" x1="815.587" y1="380.937" x2="269.093" y2="381.156" gradientUnits="userSpaceOnUse">
<stop stop-color="white"/>
<stop offset="0.0436" stop-color="#B4B4B4"/>
<stop offset="0.1507"/>
<stop offset="0.1714" stop-color="#171717"/>
<stop offset="0.3859" stop-color="white"/>
<stop offset="0.6326" stop-color="#E6E6E6"/>
<stop offset="0.8567" stop-color="#1A1A1A"/>
<stop offset="0.9987"/>
</linearGradient>
<linearGradient id="paint6_linear_42_57" x1="783.622" y1="388.239" x2="304.036" y2="388.43" gradientUnits="userSpaceOnUse">
<stop stop-color="white"/>
<stop offset="0.0436" stop-color="#B4B4B4"/>
<stop offset="0.1507"/>
<stop offset="0.1714" stop-color="#171717"/>
<stop offset="0.3859" stop-color="white"/>
<stop offset="0.6326" stop-color="#E6E6E6"/>
<stop offset="0.8567" stop-color="#1A1A1A"/>
<stop offset="0.9987"/>
</linearGradient>
<linearGradient id="paint7_linear_42_57" x1="751.818" y1="399.099" x2="338.614" y2="399.265" gradientUnits="userSpaceOnUse">
<stop stop-color="white"/>
<stop offset="0.0436" stop-color="#B4B4B4"/>
<stop offset="0.1507"/>
<stop offset="0.1714" stop-color="#171717"/>
<stop offset="0.3859" stop-color="white"/>
<stop offset="0.6326" stop-color="#E6E6E6"/>
<stop offset="0.8567" stop-color="#1A1A1A"/>
<stop offset="0.9987"/>
</linearGradient>
<linearGradient id="paint8_linear_42_57" x1="720.723" y1="409.333" x2="372.453" y2="409.472" gradientUnits="userSpaceOnUse">
<stop stop-color="white"/>
<stop offset="0.0436" stop-color="#B4B4B4"/>
<stop offset="0.1507"/>
<stop offset="0.1714" stop-color="#171717"/>
<stop offset="0.3859" stop-color="white"/>
<stop offset="0.6326" stop-color="#E6E6E6"/>
<stop offset="0.8567" stop-color="#1A1A1A"/>
<stop offset="0.9987"/>
</linearGradient>
<linearGradient id="paint9_linear_42_57" x1="694.873" y1="417.755" x2="404.624" y2="417.871" gradientUnits="userSpaceOnUse">
<stop stop-color="white"/>
<stop offset="0.0436" stop-color="#B4B4B4"/>
<stop offset="0.1507"/>
<stop offset="0.1714" stop-color="#171717"/>
<stop offset="0.3859" stop-color="white"/>
<stop offset="0.6326" stop-color="#E6E6E6"/>
<stop offset="0.8567" stop-color="#1A1A1A"/>
<stop offset="0.9987"/>
</linearGradient>
<linearGradient id="paint10_linear_42_57" x1="681.57" y1="419.727" x2="430.976" y2="419.827" gradientUnits="userSpaceOnUse">
<stop stop-color="white"/>
<stop offset="0.0436" stop-color="#B4B4B4"/>
<stop offset="0.1507"/>
<stop offset="0.1714" stop-color="#171717"/>
<stop offset="0.3859" stop-color="white"/>
<stop offset="0.6326" stop-color="#E6E6E6"/>
<stop offset="0.8567" stop-color="#1A1A1A"/>
<stop offset="0.9987"/>
</linearGradient>
<linearGradient id="paint11_linear_42_57" x1="676.242" y1="413.69" x2="436.685" y2="413.786" gradientUnits="userSpaceOnUse">
<stop stop-color="white"/>
<stop offset="0.0436" stop-color="#B4B4B4"/>
<stop offset="0.1507"/>
<stop offset="0.1714" stop-color="#171717"/>
<stop offset="0.3859" stop-color="white"/>
<stop offset="0.6326" stop-color="#E6E6E6"/>
<stop offset="0.8567" stop-color="#1A1A1A"/>
<stop offset="0.9987"/>
</linearGradient>
</defs>
</svg>
